<svg xmlns="http://www.w3.org/2000/svg" width="52" height="52" viewBox="0 0 52 52">
  <metadata><?xpacket begin="﻿" id="W5M0MpCehiHzreSzNTczkc9d"?>
<x:xmpmeta xmlns:x="adobe:ns:meta/" x:xmptk="Adobe XMP Core 5.6-c138 79.159824, 2016/09/14-01:09:01        ">
   <rdf:RDF xmlns:rdf="http://www.w3.org/1999/02/22-rdf-syntax-ns#">
      <rdf:Description rdf:about=""/>
   </rdf:RDF>
</x:xmpmeta>
                                                                                                    
                                                                                                    
                                                                                                    
                                                                                                    
                                                                                                    
                                                                                                    
                                                                                                    
                                                                                                    
                                                                                                    
                                                                                                    
                                                                                                    
                                                                                                    
                                                                                                    
                                                                                                    
                                                                                                    
                                                                                                    
                                                                                                    
                                                                                                    
                                                                                                    
                                                                                                    
                           
<?xpacket end="w"?></metadata>
<defs>
    <style>
      .cls-1 {
        fill: #180c66;
        fill-rule: evenodd;
      }
    </style>
  </defs>
  <path id="_2" data-name="2" class="cls-1" d="M23.719,31.023l4.76-4.68a8.723,8.723,0,0,0,1.82-2.3,4.751,4.751,0,0,0,.48-2.08,3.369,3.369,0,0,0-1.25-2.77,5.242,5.242,0,0,0-3.39-1.01,7.516,7.516,0,0,0-2.87.52,5.37,5.37,0,0,0-2.09,1.48l1.02,0.88a4.8,4.8,0,0,1,3.82-1.56,3.769,3.769,0,0,1,2.43.69,2.347,2.347,0,0,1,.85,1.93,3.561,3.561,0,0,1-.39,1.59,7.534,7.534,0,0,1-1.49,1.87l-5.82,5.7V32.3h9.82v-1.28h-7.7Z" transform="translate(-0.297 0.75)"/>
</svg>
