<svg xmlns="http://www.w3.org/2000/svg" width="52" height="52" viewBox="0 0 52 52">
  <metadata><?xpacket begin="﻿" id="W5M0MpCehiHzreSzNTczkc9d"?>
<x:xmpmeta xmlns:x="adobe:ns:meta/" x:xmptk="Adobe XMP Core 5.6-c138 79.159824, 2016/09/14-01:09:01        ">
   <rdf:RDF xmlns:rdf="http://www.w3.org/1999/02/22-rdf-syntax-ns#">
      <rdf:Description rdf:about=""/>
   </rdf:RDF>
</x:xmpmeta>
                                                                                                    
                                                                                                    
                                                                                                    
                                                                                                    
                                                                                                    
                                                                                                    
                                                                                                    
                                                                                                    
                                                                                                    
                                                                                                    
                                                                                                    
                                                                                                    
                                                                                                    
                                                                                                    
                                                                                                    
                                                                                                    
                                                                                                    
                                                                                                    
                                                                                                    
                                                                                                    
                           
<?xpacket end="w"?></metadata>
<defs>
    <style>
      .cls-1 {
        fill: #180c66;
        fill-rule: evenodd;
      }
    </style>
  </defs>
  <path id="_3" data-name="3" class="cls-1" d="M960.619,2125.3l3.96-4.98v-1.02h-9v1.28h7.16l-3.88,4.86v1.06h1a4.57,4.57,0,0,1,2.84.74,2.472,2.472,0,0,1,.94,2.04,2.5,2.5,0,0,1-.94,2.07,4.172,4.172,0,0,1-2.66.75,6.8,6.8,0,0,1-2.48-.45,5.131,5.131,0,0,1-1.86-1.17l-0.7,1.14a5.693,5.693,0,0,0,2.17,1.31,8.266,8.266,0,0,0,2.87.49,6.461,6.461,0,0,0,2.78-.54,3.8,3.8,0,0,0,2.3-3.6,3.657,3.657,0,0,0-1.15-2.79,5.2,5.2,0,0,0-3.35-1.19h0Z" transform="translate(-934.063 -2100.375)"/>
</svg>
