<svg xmlns="http://www.w3.org/2000/svg" viewBox="0 0 2175.96 2213.01"><title>left-mesh</title><path d="M742.5,2213q-14.29,0-28.39-.61c-57.4-2.46-98.39-13.43-129-34.51-33.09-22.79-56.53-58-71.67-107.59-12.68-41.53-17.36-85.81-21.06-127.59-8.17-92.19-4.3-186.34,0-267.36,2.24-42.42,6.6-87,10.82-130.06,11.1-113.29,22.58-230.43.33-339.13-8.21-40.09-30.69-82.21-68.72-128.78-33.22-40.67-74-79.5-110-113.76-14.77-14-28.71-27.32-41.62-40.17-19.23-19.15-40.54-38.94-63.11-59.89C130.29,780.25,28.61,685.84,3.49,581.07-1.4,560.71-1.15,544,4.23,530c8-20.76,27.26-36.09,46.91-49.57,51.8-35.54,109.2-63.94,158.93-87.77C438.56,283.14,679.7,191.27,926.81,119.59,1051.29,83.47,1178.94,52,1306.2,26.18c54.14-11,115.51-23.48,176.41-25.8,70.25-2.68,126.14,8.88,170.85,35.34,3.66,2.19,7.29,4.51,10.79,6.9q1.81,1.25,3.58,2.52c38.46,27.52,68.19,65.08,93,98.13,121.47,161.59,219.29,336,290.72,518.34C2093.64,769,2124,863.39,2144.37,950.25c25.73,109.68,35.82,210,30,298.31-4.59,69.36-26.29,130.14-62.76,175.78-38.8,48.55-98.54,87.31-182.64,118.51-37.91,14.06-77.57,25.61-115.93,36.78-32.66,9.51-66.42,19.34-99,30.68-107.19,37.36-141.54,78.59-158.06,106.36-14.59,24.53-22.79,51.51-30.72,77.6-8.36,27.53-17,56-33.2,81.9-29.94,47.92-73,92-128.09,131-73.41,52-158,88.2-231,116.71-78.52,30.65-143.67,51.62-205,66C861.91,2205.4,800.94,2213,742.5,2213ZM1502,1q-9.51,0-19.38.38C1421.83,3.7,1360.5,16.16,1306.4,27.16,1179.16,53,1051.54,84.44,927.09,120.55,680,192.22,438.94,284.06,210.5,393.54c-49.7,23.82-107,52.2-158.79,87.69C32.19,494.62,13,509.83,5.16,530.33c-5.31,13.82-5.54,30.34-.7,50.5,25.05,104.47,126.62,198.78,216.22,282,22.57,21,43.89,40.76,63.13,59.92,12.9,12.85,26.84,26.11,41.61,40.16,36,34.28,76.87,73.13,110.13,113.85,38.14,46.7,60.69,89,68.93,129.21,22.28,108.84,10.8,226.06-.31,339.43-4.22,43.07-8.58,87.61-10.82,130-4.27,81-8.15,175.09,0,267.22,3.7,41.73,8.37,85.95,21,127.39,15.08,49.39,38.39,84.41,71.28,107.06,30.45,21,71.27,31.88,128.48,34.34,67,2.88,136.85-4.47,213.59-22.46,61.31-14.37,126.41-35.33,204.89-66,73-28.49,157.47-64.62,230.79-116.6,54.94-39,97.95-82.94,127.82-130.74,16.12-25.79,24.75-54.2,33.09-81.66,7.94-26.15,16.16-53.19,30.81-77.82,34.66-58.25,107.11-88.85,158.59-106.79,32.56-11.35,66.34-21.18,99-30.69,38.34-11.16,78-22.7,115.86-36.75,83.92-31.13,143.52-69.8,182.21-118.2,36.34-45.48,58-106.07,62.55-175.22,5.83-88.17-4.25-188.44-30-298C2123,863.66,2092.69,769.29,2050.65,662c-71.4-182.27-169.17-356.59-290.59-518.1-24.8-33-54.47-70.48-92.81-97.92h0q-1.77-1.27-3.56-2.5c-3.49-2.37-7.1-4.69-10.74-6.87C1612.59,12.7,1563.07,1,1502,1Z" fill="#ffcecc"/><path d="M744.15,2156.89q-13.78,0-27.36-.59c-54.91-2.37-94.15-12.86-123.48-33-31.69-21.77-54.2-55.38-68.81-102.75-12.25-39.71-16.83-82-20.48-121.94-8-88.17-4.38-178.11-.38-255.49,1.65-31.93,4.51-64.26,7.09-91.68q1.53-16.33,3.15-32.77c10.5-108.23,21.35-220.15.11-324-7.83-38.29-29.23-78.54-65.42-123.05-31.61-38.87-70.46-76-104.74-108.79-14.14-13.52-27.5-26.29-39.86-38.67-18.35-18.35-38.69-37.31-60.22-57.39-85.41-79.63-182.22-169.88-206.1-270-4.65-19.46-4.41-35.43.73-48.82,7.6-19.83,26-34.51,44.71-47.41,47.93-33,101.13-59.64,151.5-84.08C449.14,312.44,681.43,224.36,925,154.72c119.13-34.39,241.07-64.22,362.44-88.66,32.15-6.47,68.58-13.8,105.44-18.71,77.61-10.34,136.68-7.19,185.91,9.92A218.23,218.23,0,0,1,1619,75.81c3.51,2.1,7,4.32,10.31,6.6,1.15.79,2.29,1.6,3.42,2.41,36.71,26.32,65.1,62.21,88.83,93.79C1837.8,333.4,1931.48,500.43,2000,675c37.61,95.88,65.36,180.64,84.85,259.12,24.37,98.14,36,188.69,34.64,269.14-.2,11.37-.66,22.73-1.36,33.77-4.26,66.42-24.88,124.66-59.62,168.42-37,46.69-94.1,83.95-174.43,113.9-37.31,13.94-76.42,25.26-114.24,36.21-30.43,8.81-61.91,17.92-92.26,28.34-103,35.45-136.12,74.53-152.12,100.84-14.13,23.29-22.17,48.9-29.94,73.67-8.19,26.11-16.66,53.1-32.29,77.67-29,45.34-70.51,87.12-123.43,124.17-2.54,1.77-5.13,3.55-7.7,5.29-25.28,17.08-53.07,33.22-85,49.33-36.77,18.56-77.89,36.6-129.42,56.76-75,29.32-137.38,49.4-196.21,63.17C858.33,2149.63,800,2156.89,744.15,2156.89ZM234.8,417l.22.45c-50.34,24.42-103.5,51-151.37,84C65,514.23,46.8,528.78,39.29,548.36c-5.06,13.2-5.29,29-.69,48.23C62.42,696.37,159.11,786.51,244.41,866c21.54,20.08,41.88,39,60.25,57.41,12.35,12.37,25.71,25.13,39.85,38.65,34.3,32.79,73.17,70,104.82,108.88,36.29,44.64,57.76,85,65.62,123.48,21.26,104,10.4,216-.1,324.31q-1.59,16.44-3.15,32.77c-2.58,27.41-5.43,59.72-7.08,91.63-4,77.35-7.6,167.25.38,255.35,3.65,39.88,8.23,82.12,20.44,121.74,14.54,47.15,36.92,80.58,68.43,102.22,29.17,20,68.24,30.46,123,32.83,64.12,2.77,131-4.24,204.41-21.43,58.78-13.76,121.08-33.82,196.07-63.13,51.5-20.15,92.59-38.17,129.33-56.72,31.86-16.09,59.62-32.2,84.86-49.26,2.57-1.74,5.16-3.51,7.69-5.28,52.81-37,94.25-78.65,123.16-123.89,15.56-24.45,24-51.38,32.18-77.43,7.79-24.83,15.84-50.5,30-73.89,33.57-55.22,103.19-84.24,152.65-101.27,30.38-10.43,61.86-19.55,92.31-28.36,37.8-10.94,76.89-22.26,114.17-36.19,80.16-29.89,137.07-67,174-113.59,34.62-43.6,55.16-101.64,59.41-167.86.71-11,1.17-22.37,1.36-33.72,1.38-80.36-10.27-170.82-34.61-268.88-19.48-78.44-47.22-163.16-84.81-259-68.46-174.54-162.1-341.48-278.32-496.2-23.68-31.52-52-67.34-88.61-93.58-1.12-.81-2.26-1.61-3.4-2.39-3.31-2.27-6.76-4.48-10.25-6.57a217.28,217.28,0,0,0-40-18.47c-49.08-17.06-108-20.2-185.45-9.87-36.82,4.91-73.24,12.24-105.37,18.7-121.34,24.43-243.25,54.26-362.36,88.64C681.76,225.3,449.53,313.36,235,417.41Z" fill="#ffcecc"/><path d="M745.8,2100.78q-13.26,0-26.33-.57c-52.43-2.28-89.91-12.29-118-31.49-30.3-20.75-51.88-52.77-66-97.91-11.81-37.88-16.31-78.22-19.91-116.29-7.79-84.14-4.47-169.87-.74-243.62,1.54-30.47,4.23-61.3,6.66-87.44q1.45-15.65,3-31.41c9.89-103.17,20.11-209.86-.1-308.89-7.45-36.5-27.77-74.88-62.11-117.32-30-37.08-66.89-72.53-99.44-103.81-13.52-13-26.29-25.27-38.1-37.16C307.32,907.32,288,889.19,267.46,870c-81.11-76-173-162-195.68-257.42C67.37,594,67.61,578.8,72.49,566,79.73,547.11,97.2,533.1,115,520.77c44.06-30.51,93.3-55.43,144.08-80.39l.22.45-.22-.45c197.85-97.23,421.28-181.52,664.09-250.54,117.6-33.43,233.84-61.66,345.49-83.91,30.63-6.09,65.35-13,100.47-17.6,73.92-9.68,130.18-6.55,177.07,9.84a208.52,208.52,0,0,1,38.27,17.74c3.34,2,6.64,4.12,9.82,6.31,1.09.75,2.18,1.52,3.25,2.3,35,25.12,62,59.35,84.63,89.45,111.08,148,200.63,307.64,266.18,474.53,36,91.6,62.56,172.6,81.26,247.63,23.36,93.75,34.62,180.28,33.46,257.18-.17,10.87-.58,21.73-1.24,32.27-3.94,63.49-23.47,119.18-56.49,161.06-35.29,44.84-89.67,80.59-166.23,109.29-36.71,13.83-75.27,24.92-112.56,35.64-28.21,8.11-57.38,16.5-85.55,26-98.72,33.53-130.7,70.47-146.17,95.33-13.64,22-21.49,46.21-29.07,69.63-8,24.74-16.31,50.32-31.46,73.55-27.79,42.6-67.75,82.07-118.77,117.31q-3.68,2.52-7.4,5c-24,15.94-50.7,31.21-81.61,46.66-36.06,18-75.51,35.29-124.17,54.38-71.55,28-131.09,47.17-187.39,60.33C854.75,2093.85,799.13,2100.78,745.8,2100.78ZM1445.36,83.87a588.09,588.09,0,0,0-76.09,5.45c-35.09,4.6-69.79,11.5-100.4,17.59-111.62,22.25-227.83,50.47-345.41,83.89-242.75,69-466.13,153.27-663.92,250.47-50.75,24.94-99.95,49.85-144,80.32-17.68,12.24-35,26.13-42.16,44.79-4.81,12.58-5,27.61-.67,46,22.57,95.09,114.38,181.07,195.39,256.93,20.51,19.2,39.88,37.34,57.36,54.91,11.8,11.88,24.57,24.15,38.09,37.15,32.57,31.3,69.48,66.78,99.52,103.9,34.45,42.57,54.83,81.09,62.31,117.75,20.25,99.18,10,205.94.12,309.18q-1.51,15.75-3,31.41c-2.43,26.13-5.12,56.95-6.66,87.4-3.73,73.72-7.06,159.41.73,243.48,3.59,38,8.08,78.3,19.87,116.08,14,44.91,35.46,76.76,65.57,97.38,27.89,19.09,65.21,29,117.44,31.31q12.78.56,25.54.55c131.65,0,259.05-42.94,356.95-81.25,48.63-19.07,88.05-36.33,124.08-54.34,30.88-15.44,57.54-30.68,81.5-46.6q3.71-2.47,7.39-5c50.92-35.16,90.79-74.53,118.5-117,15.08-23.12,23.35-48.64,31.35-73.31,7.61-23.47,15.47-47.74,29.18-69.85,32.47-52.19,99.28-79.64,146.7-95.75,28.19-9.52,57.37-17.92,85.59-26,37.27-10.72,75.81-21.81,112.49-35.62,76.39-28.64,130.62-64.29,165.8-109,32.89-41.72,52.35-97.22,56.27-160.5.65-10.52,1.07-21.37,1.23-32.22,1.16-76.82-10.09-163.26-33.43-256.92-18.69-75-45.25-156-81.22-247.51-65.51-166.8-155-326.38-266-474.29-22.57-30-49.57-64.2-84.42-89.24-1.07-.77-2.15-1.54-3.24-2.29-3.15-2.17-6.44-4.28-9.76-6.27a207.55,207.55,0,0,0-38.08-17.65C1516.7,88.92,1483.86,83.87,1445.36,83.87Z" fill="#ffcecc"/><path d="M747.45,2044.66q-12.74,0-25.31-.55c-49.94-2.19-85.67-11.71-112.44-30-28.91-19.73-49.55-50.17-63.1-93.06-11.38-36.05-15.79-74.42-19.33-110.63-7.61-80.1-4.55-161.63-1.09-231.76,1.43-29,4-58.34,6.23-83.2q1.37-15,2.81-30c9.28-98.11,18.88-199.57-.32-293.77C519,1093.75,446.22,1023.35,382,961.24c-12.9-12.47-25.08-24.24-36.34-35.65-16.59-16.75-35-34.05-54.44-52.38C214.38,800.93,127.33,719,105.93,628.32c-4.17-17.64-3.94-32.12.69-44.27,6.87-18,23.44-31.34,40.33-43.09,43.45-30.24,93-54.92,136.66-76.7C467,372.83,681.59,292.33,921.37,225c115.79-32.52,223.25-58.42,328.54-79.16,29.12-5.72,62.12-12.2,95.5-16.5,70.22-9,123.68-5.91,168.23,9.76A198.77,198.77,0,0,1,1550,156c3.18,1.91,6.32,3.93,9.33,6,1,.72,2.07,1.45,3.09,2.19,33.22,23.93,58.94,56.48,80.44,85.12,105.88,141.19,191.31,293.47,253.91,452.62,34.35,87.31,59.75,164.56,77.66,236.14,22.36,89.36,33.22,171.87,32.28,245.23-.14,10.36-.51,20.72-1.11,30.77-3.61,60.55-22.06,113.7-53.35,153.7-33.54,43-85.23,77.22-158,104.69-36.11,13.71-74.12,24.57-110.88,35.06-26,7.42-52.85,15.09-78.84,23.71-94.48,31.62-125.28,66.4-140.22,89.82-13.16,20.74-20.83,43.56-28.25,65.64-7.85,23.35-16,47.49-30.59,69.38-26.93,40.29-65.33,77.45-114.12,110.44-2,1.38-4.29,2.87-7.1,4.7-22.69,14.79-48.29,29.18-78.25,44-35,17.27-73.86,34.28-118.91,52-68.06,26.67-124.8,44.94-178.58,57.5C851.17,2038.08,798.23,2044.66,747.45,2044.66ZM283.83,464.7l.22.45c-43.66,21.76-93.15,46.43-136.53,76.63-16.76,11.66-33.2,24.89-40,42.63-4.56,12-4.78,26.24-.66,43.68,21.33,90.4,108.27,172.21,185,244.4,19.47,18.33,37.87,35.64,54.47,52.4,11.25,11.4,23.43,23.18,36.32,35.64,30.83,29.81,65.78,63.6,94.22,98.93,32.6,40.51,51.9,77.15,59,112,19.23,94.35,9.62,195.88.33,294.06q-1.43,15.07-2.81,30c-2.28,24.85-4.8,54.17-6.23,83.16-3.46,70.09-6.51,151.58,1.09,231.61,3.53,36.16,7.94,74.47,19.29,110.43,13.48,42.67,34,72.94,62.71,92.54,26.61,18.15,62.17,27.62,111.92,29.8,134.27,5.89,265.32-38,364.49-76.84,45-17.7,83.9-34.7,118.84-52,29.93-14.79,55.49-29.17,78.15-43.94,2.8-1.83,5-3.32,7.08-4.69,48.68-32.92,87-70,113.85-110.17,14.56-21.78,22.65-45.86,30.47-69.14,7.44-22.13,15.13-45,28.36-65.86,13.42-21,33.22-39.09,60.51-55.21,21.44-12.67,47.68-24.12,80.24-35,26-8.63,52.89-16.3,78.88-23.72,36.74-10.49,74.73-21.33,110.8-35,72.62-27.39,124.17-61.53,157.59-104.37,31.16-39.84,49.54-92.8,53.14-153.14.6-10,1-20.37,1.11-30.72.94-73.27-9.92-155.69-32.25-245-17.9-71.54-43.29-148.74-77.62-236C1833.25,543.24,1747.87,391,1642,249.92c-21.45-28.58-47.11-61.06-80.22-84.9-1-.73-2-1.46-3.08-2.18-3-2.06-6.11-4.07-9.27-6A197.8,197.8,0,0,0,1513.31,140c-44.4-15.62-97.71-18.71-167.77-9.72-33.35,4.29-66.33,10.77-95.44,16.49-105.26,20.74-212.7,46.63-328.46,79.14C681.92,293.27,467.41,373.76,284.06,465.15Z" fill="#ffcecc"/><path d="M748.53,1988.53q-11.83,0-23.7-.52c-47.46-2.1-81.43-11.14-106.92-28.46-27.52-18.71-47.23-47.56-60.24-88.22-11-34.23-15.27-70.63-18.76-105-7.42-76.07-4.64-153.39-1.45-219.89,1.32-27.53,3.67-55.37,5.81-79q1.29-14.29,2.65-28.67c8.68-93.05,17.65-189.28-.53-278.65-15-73.9-83.73-140.74-144.34-199.72-12.27-11.94-23.86-23.22-34.57-34.15-15.71-16-33.12-32.43-51.55-49.87-72.51-68.6-154.69-146.36-174.85-232.37-3.93-16.73-3.71-30.47.68-42,6.5-17.07,22.17-29.76,38.14-40.93,39.21-27.45,83.26-49.75,125.87-71.31l3.37-1.71.23.45-.23-.45c171.95-87,371.95-161.63,611.43-228,112.33-31.14,214.25-55.48,311.59-74.41,27.61-5.35,58.9-11.41,90.53-15.39,66.53-8.35,117.18-5.27,159.39,9.69a189,189,0,0,1,34.44,16.11c3,1.82,6,3.74,8.83,5.71,1,.68,2,1.38,2.93,2.08,31.48,22.73,55.86,53.61,76.24,80.78,100.68,134.39,182,279.3,241.64,430.72,32.72,83,56.95,156.51,74.07,224.65,21.35,85,31.82,163.46,31.1,233.27-.11,9.87-.43,19.72-1,29.27-3.29,57.62-20.65,108.22-50.21,146.34-31.78,41.13-80.79,73.86-149.82,100.08-35.5,13.61-73,24.21-109.2,34.46-23.76,6.72-48.34,13.68-72.13,21.41-90.25,29.71-119.86,62.34-134.28,84.3-12.69,19.47-20.18,40.92-27.43,61.65-7.67,22-15.61,44.65-29.72,65.21-25.93,37.75-62.75,72.6-109.46,103.58-2.27,1.51-4.61,3-6.79,4.41-21.65,13.82-45.45,27-74.89,41.33-34.51,16.83-71.69,33.06-113.66,49.61C983.34,1949.66,868.21,1988.53,748.53,1988.53ZM1388.15,166.76a534.81,534.81,0,0,0-66.35,4.54c-31.6,4-62.87,10-90.47,15.38-97.31,18.93-199.21,43.26-311.51,74.39C680.41,327.45,480.47,402,308.58,489l-3.37,1.71c-42.57,21.54-86.59,43.82-125.74,71.24-15.84,11.08-31.38,23.66-37.78,40.47-4.31,11.33-4.52,24.87-.64,41.41C161.14,729.55,243.2,807.2,315.61,875.7c18.44,17.45,35.86,33.93,51.58,49.9,10.7,10.92,22.29,22.2,34.56,34.13,60.71,59.08,129.53,126,144.62,200.24,18.21,89.52,9.23,185.81.55,278.94q-1.34,14.38-2.65,28.67c-2.13,23.59-4.49,51.41-5.8,78.92-3.19,66.46-6,143.74,1.44,219.74,3.48,34.3,7.79,70.64,18.71,104.77,12.94,40.43,32.52,69.12,59.85,87.7,25.33,17.22,59.14,26.21,106.41,28.29,7.89.35,15.79.52,23.66.52,119.53,0,234.52-38.83,322.84-73.5,42-16.54,79.11-32.75,113.59-49.58,29.4-14.36,53.17-27.47,74.79-41.27,2.52-1.61,4.64-3,6.78-4.4,46.6-30.91,83.34-65.67,109.19-103.31,14-20.44,22-43.08,29.6-65,7.27-20.79,14.78-42.3,27.54-61.87,13-19.75,32-36.71,58.1-51.84,20.49-11.87,45.58-22.62,76.71-32.87,23.82-7.74,48.4-14.7,72.17-21.43,36.21-10.25,73.66-20.84,109.11-34.43,68.86-26.15,117.73-58.78,149.39-99.75,29.43-38,46.72-88.37,50-145.78.54-9.54.87-19.37,1-29.23.71-69.73-9.74-148.12-31.07-233-17.11-68.1-41.33-141.54-74-224.53-59.62-151.33-140.88-296.17-241.5-430.48-20.34-27.11-44.66-57.92-76-80.57-1-.7-1.93-1.39-2.91-2.07-2.83-2-5.78-3.87-8.78-5.68a188,188,0,0,0-34.25-16C1453.94,171.45,1423.72,166.76,1388.15,166.76Z" fill="#ffcecc"/><path d="M750.26,1932.42q-11.35,0-22.76-.5c-45-2-77.19-10.57-101.4-27-61-41.29-70.12-129.81-75.56-182.7-7.29-70.8-4.89-141.58-1.8-208,1.21-26.07,3.4-52.41,5.38-74.73q1.21-13.6,2.48-27.31c8.07-88,16.42-179-.74-263.53-14.18-69.87-78.76-133.17-135.74-189-11.65-11.41-22.64-22.2-32.8-32.65-14.82-15.15-31.26-30.8-48.66-47.36-68.21-64.93-145.52-138.53-164.43-219.84-3.69-15.82-3.48-28.81.66-39.71,6.13-16.14,20.9-28.17,35.94-38.77,35.25-24.84,74.79-45.16,113-64.81l8.79-4.52.23.44-.23-.44c158.49-81.6,349.88-152.5,585.1-216.76,108.88-29.75,205.26-52.53,294.64-69.66,26.1-5,55.68-10.61,85.57-14.28,62.84-7.68,110.68-4.63,150.55,9.61a179.31,179.31,0,0,1,32.52,15.3c2.85,1.72,5.65,3.54,8.35,5.41q1.4,1,2.77,2c29.73,21.53,52.77,50.75,72,76.44,95.48,127.58,172.65,265.13,229.36,408.81,31.09,78.74,54.14,148.47,70.48,213.16,20.35,80.59,30.42,155,29.92,221.31-.08,9.36-.36,18.71-.85,27.77-3,54.68-19.24,102.74-47.07,139-29.85,39.06-76.18,70.28-141.62,95.47-34.39,13.23-70.75,23.43-105.91,33.29-22.08,6.19-44.9,12.59-67,19.69-86,27.57-114.44,58.17-128.33,78.79-12.28,18.23-19.61,38.34-26.69,57.79-7.47,20.52-15.2,41.74-28.77,60.91-24.92,35.21-60.18,67.75-104.8,96.72-2.15,1.39-4.32,2.75-6.49,4.11-20.26,12.63-43,24.92-71.53,38.66-33.75,16.24-70.23,32.13-108.41,47.22C972.81,1895.6,863.89,1932.42,750.26,1932.42ZM1359.53,208.19a508.21,508.21,0,0,0-61.47,4.09c-29.86,3.66-59.42,9.3-85.5,14.27-89.35,17.12-185.7,39.91-294.56,69.65C682.86,360.45,491.53,431.33,333.1,512.89l-8.79,4.52C286.11,537,246.6,557.34,211.4,582.14c-14.92,10.51-29.56,22.42-35.59,38.31-4.06,10.71-4.27,23.51-.62,39.13,18.85,81,96,154.51,164.15,219.34,17.41,16.57,33.85,32.22,48.68,47.39,10.15,10.44,21.15,21.22,32.79,32.63,57.08,55.95,121.78,119.36,136,189.53,17.19,84.68,8.84,175.75.76,263.82q-1.26,13.7-2.48,27.3c-2,22.31-4.17,48.63-5.38,74.69-3.08,66.4-5.48,137.14,1.8,207.87,5.43,52.72,14.51,141,75.13,182,24.05,16.28,56.11,24.79,100.89,26.78q11.38.51,22.71.5c113.47,0,222.27-36.78,305.79-69.62,38.16-15.09,74.61-31,108.34-47.19,28.51-13.73,51.21-26,71.43-38.61,2.17-1.36,4.33-2.71,6.48-4.1,44.52-28.9,79.69-61.35,104.53-96.46,13.49-19.06,21.19-40.21,28.64-60.67,7.11-19.51,14.45-39.68,26.8-58,14-20.74,42.55-51.52,128.86-79.18,22.14-7.1,45-13.5,67.06-19.7,35.14-9.86,71.48-20,105.82-33.26,65.27-25.12,111.45-56.24,141.18-95.14,27.71-36.08,43.91-84,46.87-138.43.49-9.05.78-18.38.85-27.73.49-66.18-9.56-140.56-29.89-221.06-16.33-64.65-39.37-134.33-70.44-213-56.68-143.6-133.81-281.07-229.23-408.58-19.22-25.63-42.21-54.78-71.83-76.23q-1.37-1-2.75-2c-2.68-1.86-5.47-3.67-8.29-5.38a178.38,178.38,0,0,0-32.34-15.22C1422.56,212.71,1393.64,208.19,1359.53,208.19Z" fill="#ffcecc"/><path d="M752,1876.31q-10.89,0-21.82-.49c-42.48-1.91-73-10-95.88-25.44-53.42-36-65.24-107.76-72.13-172.21-7.11-66.54-5-133.39-2.16-196.15,1.1-24.61,3.12-49.44,5-70.49q1.12-12.92,2.31-25.94c7.47-82.94,15.19-168.7-1-248.41-13.33-65.85-73.79-125.6-127.14-178.32-11-10.89-21.42-21.17-31-31.14-13.94-14.35-29.4-29.17-45.76-44.85-63.91-61.26-136.34-130.69-154-207.31-3.45-14.91-3.24-27.16.65-37.43,5.76-15.22,19.62-26.59,33.75-36.61,31.58-22.43,67-40.88,101.17-58.73l13.22-6.91.23.44-.23-.44c80.56-42.25,169.76-80.65,272.71-117.41,85.49-30.52,179.06-59.34,286.06-88.09s195.15-49.36,277.68-64.92c24.58-4.6,52.43-9.81,80.6-13.17,59.15-7,104.18-4,141.71,9.54a169.61,169.61,0,0,1,30.61,14.49c2.67,1.62,5.31,3.34,7.86,5.12.88.61,1.74,1.23,2.6,1.86,28,20.33,49.69,47.88,67.84,72.1,90.28,120.78,163.32,251,217.09,386.91,29.46,74.46,51.34,140.42,66.89,201.67,19.34,76.2,29,146.64,28.74,209.36,0,8.85-.29,17.69-.73,26.27-2.64,51.74-17.83,97.26-43.93,131.62-28.06,37.16-71.7,66.88-133.41,90.86-33.67,13.08-69.39,23-103.92,32.56-20,5.53-40.59,11.25-60.63,17.53-81.79,25.62-109,54.09-122.39,73.28-11.82,17-19,35.7-25.89,53.83-7.3,19.12-14.84,38.89-27.88,56.71-23.9,32.67-57.6,62.9-100.15,89.86-2,1.26-4,2.48-6,3.7l-.19.12c-19.06,11.58-40.08,22.68-68.17,36-33.77,16-68.48,31.08-103.16,44.84C962.29,1841.54,859.56,1876.3,752,1876.31ZM1330.89,249.63a481.65,481.65,0,0,0-56.56,3.65c-28.13,3.35-56,8.56-80.53,13.16-82.51,15.55-170.72,36.17-277.61,64.9s-200.52,57.56-286,88.07c-102.9,36.74-192.07,75.13-272.58,117.35l-13.22,6.91c-34.18,17.83-69.53,36.27-101.06,58.66-14,9.93-27.73,21.18-33.4,36.15-3.82,10.09-4,22.14-.61,36.86C227,751.67,299.27,821,363.08,882.15c16.37,15.69,31.84,30.51,45.79,44.88,9.6,10,20,20.24,31,31.12,53.45,52.82,114,112.68,127.42,178.83,16.17,79.85,8.45,165.69,1,248.7q-1.17,13-2.31,25.94c-1.83,21-3.85,45.85-5,70.45-2.8,62.73-4.95,129.53,2.15,196,6.86,64.22,18.62,135.74,71.69,171.48,22.77,15.34,53.08,23.37,95.37,25.27q10.91.49,21.77.48c107.4,0,210-34.73,288.74-65.74,34.66-13.75,69.35-28.83,103.1-44.81,28.05-13.31,49-24.39,68.08-36l.19-.12c2-1.22,4-2.44,6-3.69,42.44-26.89,76-57,99.88-89.6,13-17.71,20.48-37.42,27.75-56.48,6.94-18.18,14.11-37,26-54,13.45-19.31,40.83-47.95,122.91-73.66,20-6.28,40.69-12,60.66-17.54,34.51-9.57,70.2-19.46,103.83-32.52,61.53-23.91,105-53.52,133-90.53,26-34.2,41.1-79.53,43.73-131.07.44-8.57.68-17.4.72-26.23.27-62.64-9.39-133-28.71-209.11-15.54-61.2-37.4-127.13-66.85-201.55-53.74-135.87-126.73-266-217-386.67-18.11-24.16-39.76-51.64-67.63-71.89-.86-.62-1.72-1.24-2.59-1.85-2.52-1.76-5.15-3.47-7.8-5.08a168.58,168.58,0,0,0-30.43-14.4C1391.17,254,1363.55,249.63,1330.89,249.63Z" fill="#ffcecc"/><path d="M753.74,1820.19q-10.41,0-20.88-.47c-40-1.82-68.71-9.42-90.36-23.93-50.56-33.87-62-101.23-68.69-161.71-6.93-62.31-5-125.2-2.51-184.29,1-23.15,2.84-46.48,4.53-66.25q1-12.25,2.14-24.58c6.86-77.88,14-158.41-1.17-233.28C564.24,1063.51,507.5,1007,457.45,957.19c-10.1-10.05-19.63-19.55-28.46-28.75-13.28-13.86-28.06-28.15-43.71-43.29C326,827.84,258.87,762.88,242.51,691.31c-3.22-14-3-25.5.63-35.16,5.39-14.3,18.35-25,31.56-34.45,28.19-20.18,59.72-36.89,90.22-53q8.38-4.44,16.75-8.9c177.63-95.08,389-156.4,532.45-194.25,104.86-27.66,185.28-46.22,260.73-60.17,23.06-4.22,49.2-9,75.63-12.06,55.46-6.35,97.68-3.34,132.87,9.46A159.87,159.87,0,0,1,1412,316.41c2.5,1.53,5,3.15,7.37,4.82q1.23.86,2.44,1.75c26.24,19.14,46.61,45,63.65,67.76,85.08,114,154,236.79,204.82,365,27.83,70.17,48.53,132.38,63.29,190.18,18.34,71.81,27.61,138.23,27.56,197.4,0,8.35-.21,16.68-.6,24.78-2.32,48.81-16.43,91.78-40.8,124.26-26.27,35.27-67.23,63.49-125.21,86.25-33,12.94-68,22.53-101.94,31.8-17.84,4.88-36.29,9.92-54.22,15.39-77.56,23.68-103.6,50-116.44,67.77-11.35,15.7-18.33,33.07-25.08,49.87-7.12,17.72-14.48,36-27,52.51-22.88,30.12-55,58-95.49,83-1.75,1.08-3.51,2.12-5.28,3.16l-.61.36c-22.3,13.15-45.28,24.23-64.81,33.33-34.24,15.94-67.18,30.22-97.9,42.46C951.76,1787.48,855.23,1820.19,753.74,1820.19Zm-371.84-1260,.24.44q-8.36,4.48-16.75,8.91c-30.47,16.14-62,32.83-90.11,53-13.08,9.35-25.91,19.95-31.21,34-3.57,9.46-3.76,20.77-.59,34.58C259.78,762.36,326.82,827.22,386,884.43c15.66,15.14,30.44,29.45,43.74,43.32,8.82,9.2,18.35,18.69,28.44,28.74,50.15,49.93,107,106.53,119.61,169,15.16,75,8.05,155.62,1.19,233.57q-1.09,12.33-2.14,24.58c-1.69,19.76-3.54,43.08-4.52,66.21-2.52,59-4.41,121.9,2.51,184.13,6.7,60.25,18,127.35,68.25,161,21.49,14.4,50,21.95,89.85,23.76,108.87,5,213.52-30.21,292.52-61.4,30.7-12.23,63.62-26.5,97.85-42.43,19.51-9.1,42.46-20.17,64.72-33.29l.61-.36c1.76-1,3.52-2.08,5.26-3.15,40.38-24.88,72.41-52.72,95.22-82.75,12.43-16.37,19.77-34.62,26.86-52.28,6.77-16.85,13.77-34.28,25.2-50.08,12.92-17.87,39.11-44.38,117-68.14,17.95-5.48,36.4-10.52,54.25-15.4,33.89-9.26,68.93-18.84,101.84-31.76,57.8-22.69,98.61-50.8,124.77-85.92,24.25-32.32,38.29-75.1,40.6-123.71.38-8.08.58-16.4.6-24.73.05-59.09-9.21-125.42-27.53-197.15-14.75-57.76-35.44-119.93-63.25-190.06C1638.59,628,1569.72,505.25,1484.69,391.34c-17-22.69-37.3-48.5-63.43-67.55q-1.2-.88-2.43-1.74c-2.37-1.66-4.83-3.27-7.31-4.78A158.89,158.89,0,0,0,1383,303.67c-35-12.75-77.11-15.74-132.41-9.41-26.4,3-52.52,7.83-75.56,12-75.43,13.94-155.82,32.5-260.66,60.15-299.52,79-447.2,148.65-532.23,194.16Z" fill="#ffcecc"/><path d="M755.49,1764.08q-9.95,0-20-.46c-37.51-1.73-64.47-8.85-84.84-22.42C603,1709.45,592,1646.5,585.44,1590c-6.74-58.07-5.11-117-2.87-172.42.87-21.66,2.56-43.5,4.1-62q1-11.57,2-23.22c6.26-72.82,12.73-148.11-1.38-218.16C575.55,1056,522.88,1003,476.41,956.28c-9.43-9.48-18.33-18.44-26.57-27.12-12.43-13.1-26.26-26.61-40.91-40.91C354,834.64,291.76,773.89,276.66,707.05c-3-13.09-2.78-23.85.61-32.88,5-13.37,17.08-23.42,29.37-32.29,25-18.11,53-33.17,80.11-47.74,6.38-3.43,13-7,19.43-10.52,160.25-87.73,354.66-143.88,506.12-183,72.45-18.71,158.08-39.92,243.78-55.42,21.55-3.85,46-8.22,70.66-11,51.76-5.69,91.17-2.7,124,9.38a150.22,150.22,0,0,1,26.78,12.87c2.34,1.44,4.65,3,6.88,4.52.77.54,1.53,1.09,2.28,1.64,24.5,17.94,43.53,42.15,59.45,63.43C1526,533.28,1590.82,648.71,1638.7,769.19c26.2,65.89,45.73,124.33,59.7,178.69,17.33,67.42,26.21,129.81,26.38,185.45,0,7.85-.14,15.68-.47,23.28-2,45.73-15,86.15-37.66,116.9-24.64,33.45-62.91,60.15-117,81.64-32.23,12.8-66.67,22.06-100,31-15.72,4.23-32,8.6-47.8,13.29-73.34,21.73-98.19,45.94-110.5,62.26-10.89,14.44-17.69,30.43-24.28,45.9-6.94,16.32-14.12,33.19-26.11,48.32-21.86,27.58-52.42,53.19-90.83,76.13-1.55.93-3.12,1.82-4.69,2.72l-.89.51c-20.1,11.45-41.41,21.51-61.45,30.67-37,16.9-65.61,29.26-92.65,40.07C941.24,1733.42,850.89,1764.08,755.49,1764.08Zm-349.06-1180,.24.44C400.2,588,393.6,591.59,387.23,595c-27,14.55-55,29.6-80,47.67-12.16,8.78-24.09,18.71-29,31.83-3.32,8.84-3.51,19.41-.58,32.31,15,66.55,77.17,127.19,132,180.7,14.66,14.31,28.5,27.82,40.94,40.93,8.23,8.68,17.13,17.63,26.56,27.11,46.57,46.84,99.35,99.92,111.12,158.42,14.14,70.19,7.66,145.55,1.4,218.44q-1,11.65-2,23.22c-1.54,18.5-3.23,40.33-4.1,62-2.24,55.36-3.87,114.27,2.86,172.26,6.54,56.28,17.48,119,64.82,150.49,20.21,13.46,47,20.53,84.34,22.25q10,.46,19.9.45c95.25,0,185.46-30.62,254.62-58,27-10.81,55.59-23.16,92.6-40.05,20-9.15,41.3-19.2,61.37-30.63l.89-.51c1.57-.89,3.13-1.79,4.68-2.71,38.31-22.88,68.78-48.41,90.56-75.89,11.9-15,19.06-31.83,26-48.09,6.61-15.52,13.44-31.58,24.4-46.11,12.39-16.43,37.39-40.8,111-62.61,15.84-4.69,32.1-9.06,47.83-13.29,33.27-8.94,67.68-18.19,99.86-31,53.92-21.42,92-48,116.57-81.31,22.53-30.58,35.48-70.82,37.46-116.35.33-7.58.49-15.4.47-23.23-.17-55.55-9-117.86-26.35-185.2-14-54.31-33.48-112.72-59.66-178.57-47.85-120.4-112.59-235.75-192.42-342.86-15.87-21.22-34.85-45.36-59.24-63.22-.75-.55-1.5-1.09-2.26-1.63-2.21-1.55-4.5-3.06-6.82-4.49a149.23,149.23,0,0,0-26.6-12.78c-32.7-12-72-15-123.57-9.33-24.66,2.73-49.06,7.09-70.59,10.94-85.67,15.49-171.27,36.7-243.71,55.4-151.41,39.1-345.74,95.22-505.89,182.9Z" fill="#ffcecc"/><path d="M757.48,1708q-9.7,0-19.27-.45c-35-1.64-60.23-8.28-79.32-20.9-44.84-29.66-55.42-88.18-61.82-140.71-6.56-53.85-5.19-108.84-3.22-160.55.76-20.2,2.29-40.54,3.67-57.78q.87-10.9,1.8-21.87c5.65-67.75,11.5-137.81-1.59-203C586.85,1048.47,538.24,999,495.36,955.36c-8.76-8.91-17-17.33-24.69-25.5-11.57-12.34-24.46-25.06-38.11-38.52C382,841.45,324.66,784.9,310.81,722.8c-2.74-12.19-2.54-22.2.6-30.6,4.65-12.45,15.81-21.84,27.17-30.13,22.14-16.18,46.86-29.71,70.77-42.79,7-3.83,14.26-7.8,21.35-11.78,144.76-81.28,323.77-132.42,479.8-171.74,68.43-17.24,148-36.8,226.83-50.67,20-3.48,42.74-7.42,65.69-9.84,48.07-5,84.67-2.06,115.18,9.31a140.57,140.57,0,0,1,24.86,12.05c2.18,1.35,4.32,2.77,6.38,4.22q1.07.76,2.12,1.53c22.75,16.74,40.45,39.28,55.25,59.09,74.69,100.38,135.34,208.44,180.28,321.19,24.57,61.6,42.92,116.29,56.11,167.2,16.33,63,24.81,121.4,25.2,173.49,0,7.34-.07,14.67-.34,21.78-1.66,42.78-13.6,80.66-34.52,109.54-22.87,31.57-58.46,56.77-108.8,77-31.5,12.68-65.32,21.58-98,30.19-13.6,3.58-27.66,7.28-41.37,11.21-69.13,19.79-92.78,41.87-104.56,56.75-10.42,13.17-17.06,27.8-23.47,41.94-6.77,14.92-13.77,30.35-25.23,44.12-20.82,25-49.81,48.33-86.18,69.27-1.39.8-2.79,1.57-4.2,2.34l-1.08.59c-18.63,10.2-38.11,19.06-58.08,28l-4.37,1.95c-27,12.07-55,24.55-83,35.74-46.27,18.47-87.37,31.74-125.66,40.55C829.79,1703.48,792.94,1708,757.48,1708Zm-326.54-1100,.24.44c-7.09,4-14.35,8-21.36,11.79-23.88,13.07-48.58,26.58-70.66,42.72-11.24,8.2-22.27,17.47-26.83,29.68-3.07,8.22-3.25,18-.56,30,13.79,61.81,71,118.25,121.48,168.05,13.66,13.47,26.56,26.2,38.13,38.55,7.65,8.16,15.92,16.57,24.67,25.48,43,43.74,91.71,93.32,102.64,147.83,13.12,65.35,7.27,135.48,1.61,203.3q-.92,11-1.8,21.87c-1.39,17.22-2.91,37.55-3.67,57.74-2,51.67-3.33,106.61,3.22,160.39,6.37,52.31,16.9,110.58,61.38,140,18.94,12.52,44,19.11,78.82,20.74q9.29.44,18.56.43c91.37,0,178.77-30.47,238-54.1,28-11.19,56-23.66,83-35.73l4.37-1.95c20-8.93,39.41-17.79,58-28l1.08-.59c1.4-.77,2.8-1.53,4.18-2.33,36.26-20.87,65.16-44.1,85.91-69,11.37-13.67,18.34-29,25.09-43.9,6.44-14.2,13.1-28.87,23.6-42.14,11.86-15,35.65-37.22,105.06-57.09,13.72-3.93,27.79-7.63,41.39-11.22,32.67-8.6,66.45-17.5,97.9-30.16,50.17-20.19,85.62-45.28,108.37-76.7,20.8-28.72,32.67-66.41,34.33-109,.27-7.1.39-14.41.34-21.73-.39-52-8.86-110.29-25.17-173.25-13.18-50.87-31.52-105.52-56.07-167.08-44.91-112.66-105.52-220.65-180.15-321-14.76-19.75-32.4-42.22-55-58.88-.7-.51-1.39-1-2.1-1.52-2-1.45-4.18-2.86-6.33-4.19a139.58,139.58,0,0,0-24.68-12c-30.36-11.31-66.82-14.25-114.73-9.25-22.92,2.42-45.61,6.36-65.62,9.83-78.77,13.87-158.35,33.42-226.76,50.65-156,39.29-334.9,90.42-479.55,171.64Z" fill="#ffcecc"/><path d="M759.06,1651.86q-9.16,0-18.17-.43c-32.54-1.55-56-7.71-73.8-19.39-19.23-12.61-33.35-32-43.2-59.13-8.26-22.82-12.18-47.65-15.19-71.08-6.38-49.65-5.26-100.68-3.58-148.68.65-18.74,2-37.58,3.25-53.54q.79-10.22,1.63-20.51c5-62.69,10.27-127.52-1.8-187.89-10-50.25-54.58-96.2-93.89-136.75-8.09-8.34-15.73-16.22-22.8-23.87-10.7-11.58-22.64-23.5-35.29-36.13C410,848.26,357.56,795.92,345,738.55c-2.5-11.28-2.31-20.54.58-28.32,4.28-11.53,14.53-20.26,25-28,19.45-14.4,41.15-26.48,62.15-38.17,7.41-4.13,15.07-8.39,22.55-12.71,130.61-75.44,295.13-121.71,453.47-160.48,74.57-18.26,141.83-34.31,209.88-45.92,18.51-3.1,39.49-6.62,60.72-8.73,44.38-4.35,78.17-1.42,106.34,9.23a130.94,130.94,0,0,1,22.95,11.24c2,1.25,4,2.57,5.89,3.93.66.47,1.31.94,2,1.42,21,15.55,37.37,36.41,51.05,54.75,69.49,93.58,126,194.27,168,299.28,22.94,57.31,40.11,108.24,52.52,155.71,15.32,58.64,23.4,113,24,161.53.08,6.84,0,13.66-.22,20.28-1.34,39.83-12.19,75.16-31.38,102.18-20.8,29.29-54.65,53.66-100.6,72.43-30.77,12.57-64,21.09-96.09,29.34-11.47,2.94-23.33,6-34.91,9.17-64.93,17.86-87.37,37.8-98.61,51.24-10,11.91-16.41,25.16-22.66,38-6.59,13.52-13.41,27.5-24.34,39.93-19.77,22.48-47.2,43.47-81.52,62.4-1.25.69-2.52,1.35-3.78,2l-1.2.63c-17,8.89-34.72,16.61-53.47,24.79l-1.26.55q-10.64,4.63-21.38,9.37c-19.83,8.72-40.33,17.74-60.76,25.94C894.71,1635.68,824,1651.86,759.06,1651.86ZM455.46,631.8l.25.43c-7.48,4.32-15.15,8.59-22.56,12.72-21,11.67-42.64,23.74-62,38.1-10.32,7.63-20.45,16.24-24.64,27.52-2.82,7.6-3,16.68-.54,27.76,12.55,57.08,64.85,109.32,111,155.41,12.65,12.63,24.6,24.57,35.31,36.16,7.06,7.64,14.7,15.52,22.78,23.86,39.4,40.64,84.06,86.71,94.15,137.25,12.1,60.51,6.87,125.41,1.82,188.17q-.83,10.29-1.63,20.51c-1.24,15.95-2.59,34.78-3.25,53.5-1.68,48-2.79,98.94,3.57,148.52,3,23.38,6.91,48.14,15.14,70.87,9.76,27,23.77,46.15,42.8,58.64,17.66,11.58,40.95,17.69,73.3,19.23,69.73,3.31,145.53-12.52,238.53-49.82,20.42-8.19,40.91-17.21,60.73-25.92q10.74-4.72,21.38-9.37l1.25-.55c18.73-8.17,36.42-15.88,53.4-24.76l1.2-.63c1.26-.66,2.52-1.32,3.76-2,34.22-18.87,61.55-39.79,81.25-62.18,10.84-12.32,17.63-26.24,24.2-39.71,6.27-12.87,12.76-26.17,22.79-38.17,23.64-28.29,67.89-43,99.11-51.56,11.59-3.19,23.46-6.23,34.93-9.18,32.08-8.23,65.25-16.75,96-29.29,45.77-18.7,79.47-43,100.16-72.08,19.07-26.86,29.86-62,31.19-101.63.22-6.61.29-13.41.22-20.24-.61-48.46-8.69-102.73-24-161.29-12.39-47.42-29.56-98.32-52.48-155.59-42-104.93-98.45-205.55-167.88-299.05-13.64-18.28-29.95-39.08-50.84-54.54q-1-.71-1.94-1.41c-1.9-1.35-3.86-2.66-5.84-3.89a130,130,0,0,0-22.77-11.15c-28-10.6-61.67-13.51-105.89-9.17-21.2,2.11-42.16,5.62-60.66,8.72-68,11.6-135.26,27.65-209.81,45.91-158.27,38.75-322.71,85-453.21,160.37Z" fill="#ffcecc"/><path d="M760.84,1595.75c-5.81,0-11.55-.14-17.27-.42-30.05-1.46-51.75-7.14-68.28-17.88-37.28-24.23-48.44-71.86-55-119.72-6.19-45.48-5.34-92.53-3.93-136.82.54-17.26,1.73-34.61,2.82-49.3q.71-9.55,1.46-19.16c4.45-57.63,9-117.22-2-172.76-9.2-46.28-49.69-88.72-85.41-126.16-7.42-7.78-14.42-15.12-20.91-22.25-9.83-10.81-20.82-21.94-32.45-33.73C438,855.08,390.46,806.94,379.1,754.29c-2.26-10.37-2.08-18.89.57-26,3.91-10.6,13.26-18.67,22.79-25.81,17-12.75,35.89-23.49,54.2-33.88,7.59-4.31,15.44-8.76,23.08-13.32l.26.43-.26-.43C603.18,581.61,764.94,539.61,906.87,506l7.71-1.83c60.54-14.34,123.13-29.16,185.21-39.35,17-2.73,36.24-5.82,55.76-7.62,40.68-3.69,71.66-.78,97.5,9.16a121.3,121.3,0,0,1,21,10.43c1.84,1.15,3.66,2.38,5.4,3.63.6.43,1.2.87,1.79,1.31,19.26,14.35,34.28,33.55,46.85,50.41,64.29,86.78,116.69,180.1,155.74,277.37,21.3,53,37.31,100.2,48.92,144.22,14.32,54.25,22,104.58,22.84,149.58.11,6.34.08,12.66-.09,18.78-1,36.88-10.78,69.66-28.24,94.82-19.05,27.45-50.14,50.27-92.4,67.82-30,12.48-62.65,20.58-94.19,28.42-9.33,2.32-19,4.72-28.42,7.19-31.55,8.27-70.59,21-92.67,45.73-9.48,10.64-15.77,22.52-21.85,34-6.42,12.13-13.06,24.66-23.46,35.74-18.71,19.92-44.57,38.61-76.86,55.53-1.14.6-2.3,1.17-3.45,1.74l-1.22.6c-13.94,6.89-28.32,13-43.54,19.37l-7.82,3.3c-10,4.24-20.32,8.73-30.27,13.08-15.23,6.66-31,13.54-46.62,19.84C886.34,1580.81,821,1595.75,760.84,1595.75ZM1187.23,456.69c-9.85,0-20.34.51-31.59,1.53-19.48,1.8-38.71,4.89-55.69,7.61-62,10.18-124.62,25-185.14,39.33L907.1,507C765.24,540.57,603.57,582.55,480.23,656.1c-7.64,4.56-15.5,9-23.1,13.33-18.28,10.37-37.18,21.1-54.09,33.81-9.4,7-18.63,15-22.45,25.36-2.57,7-2.75,15.31-.53,25.49,11.3,52.36,58.71,100.4,100.54,142.78,11.64,11.79,22.63,22.93,32.48,33.76,6.48,7.12,13.48,14.46,20.9,22.23,35.82,37.54,76.41,80.09,85.67,126.66,11.08,55.67,6.48,115.33,2,173q-.74,9.61-1.46,19.16c-1.09,14.68-2.28,32-2.82,49.26-1.4,44.25-2.25,91.25,3.93,136.65,6.48,47.62,17.57,95,54.51,119,16.38,10.64,37.92,16.27,67.79,17.72,64.87,3.13,134.95-11.47,220.54-46,15.63-6.3,31.37-13.18,46.59-19.83,9.95-4.35,20.23-8.84,30.28-13.08l7.82-3.3c15.21-6.41,29.58-12.47,43.48-19.34l1.22-.6c1.15-.57,2.3-1.13,3.43-1.73,32.19-16.87,58-35.49,76.6-55.33,10.31-11,16.92-23.45,23.31-35.52,6.11-11.53,12.43-23.46,22-34.2,22.26-25,61.48-37.73,93.16-46,9.45-2.48,19.1-4.88,28.43-7.2,31.51-7.83,64.09-15.93,94.05-28.38,42.08-17.48,73-40.18,92-67.47,17.35-25,27-57.59,28.06-94.27.17-6.11.2-12.42.09-18.74-1.53-82.27-24.31-175.51-71.69-293.44-39-97.2-91.37-190.44-155.61-277.15-12.53-16.81-27.5-35.94-46.65-50.21l-1.78-1.3c-1.73-1.24-3.53-2.45-5.35-3.6a120.28,120.28,0,0,0-20.86-10.34C1234.14,460.18,1212.88,456.69,1187.23,456.69Z" fill="#ffcecc"/><path d="M762.62,1539.64q-8.25,0-16.38-.4c-27.56-1.36-47.5-6.56-62.76-16.36-34.57-22.22-45.19-65.62-51.52-109.22-6-41.32-5.41-84.39-4.29-125,.43-15.8,1.45-31.65,2.4-45.07q.62-8.88,1.28-17.82c3.84-52.56,7.82-106.91-2.22-157.61-8.36-42.3-44.79-81.23-76.93-115.57-6.75-7.21-13.12-14-19-20.63-9-10-19-20.38-29.59-31.32C466,861.91,423.37,818,413.24,770c-2-9.46-1.84-17.23.55-23.77,3.54-9.68,12-17.09,20.59-23.65,14.66-11.21,31-20.7,46.85-29.88,7.58-4.39,15.41-8.93,23-13.62l.26.43-.26-.43c110.57-68.4,258.64-105.66,400.83-138l22.35-5.1c50.24-11.5,102.19-23.38,153.63-31.32,16.21-2.5,33.48-5.06,50.79-6.51,37-3,65.16-.14,88.66,9.08a111.65,111.65,0,0,1,19.11,9.62c1.67,1.06,3.33,2.18,4.91,3.33l1.63,1.21c17.51,13.15,31.2,30.68,42.65,46.07,59.09,80,107.36,165.93,143.46,255.47,43.16,106.93,65.07,195.36,67,270.34.14,5.84.15,11.65,0,17.29-.69,33.92-9.37,64.17-25.1,87.45-17.3,25.62-45.63,46.89-84.19,63.22-29.29,12.4-61.34,20-92.34,27.44-7.18,1.71-14.61,3.48-21.89,5.29-29.38,7.28-65.78,18.42-86.73,40.23-9,9.38-15.13,19.88-21,30-6.25,10.73-12.72,21.83-22.58,31.55-17.87,17.61-41.49,33.53-72.2,48.67-1,.51-2.08,1-3.13,1.48l-1.24.57c-11.25,5.2-22.77,9.83-35,14.73q-6.45,2.59-13,5.27c-11.56,4.71-23.38,9.87-34.82,14.86-12,5.25-24.47,10.68-36.81,15.68C878,1525.95,818.13,1539.64,762.62,1539.64ZM1158.34,498.06c-8.29,0-17.07.39-26.43,1.15-17.28,1.45-34.53,4-50.72,6.51-51.4,7.93-103.33,19.81-153.56,31.31l-22.35,5.1C763.18,574.41,615.2,611.65,504.76,680c-7.6,4.7-15.44,9.25-23,13.64-15.8,9.16-32.14,18.63-46.75,29.81-8.48,6.47-16.81,13.76-20.26,23.2-2.33,6.35-2.49,13.95-.51,23.21,10.06,47.64,52.58,91.48,90.09,130.15,10.62,10.95,20.65,21.29,29.62,31.35,5.89,6.61,12.26,13.41,19,20.61,32.24,34.44,68.77,73.48,77.18,116.06,10.06,50.83,6.08,105.25,2.23,157.88q-.65,8.94-1.28,17.82c-.94,13.41-2,29.24-2.39,45-1.12,40.52-1.71,83.54,4.28,124.78C639.25,1456.87,649.8,1500,684,1522c15.1,9.7,34.89,14.85,62.27,16.21,60,2.95,124.36-10.42,202.54-42.1,12.33-5,24.76-10.42,36.79-15.67,11.44-5,23.27-10.15,34.84-14.87q6.58-2.69,13-5.27c12.18-4.9,23.69-9.52,34.92-14.71l1.24-.57c1-.48,2.08-1,3.11-1.46,30.62-15.09,54.15-30.95,71.94-48.48,9.77-9.63,16.2-20.67,22.42-31.34,5.95-10.2,12.09-20.75,21.18-30.22,21.13-22,57.7-33.2,87.21-40.51,7.29-1.8,14.72-3.58,21.9-5.29,31-7.38,63-15,92.18-27.39,38.39-16.25,66.56-37.4,83.75-62.86,15.62-23.13,24.24-53.18,24.92-86.92.11-5.62.1-11.42,0-17.24-1.92-74.86-23.81-163.18-66.92-270C1395.26,733.9,1347,648,1288,568.12c-11.41-15.34-25-32.8-42.45-45.87l-1.62-1.19c-1.57-1.14-3.21-2.25-4.86-3.3a110.66,110.66,0,0,0-18.94-9.53C1202.7,501.39,1182.67,498.06,1158.34,498.06Z" fill="#ffcecc"/><path d="M763.77,1483.52q-7.5,0-14.84-.37c-25.07-1.27-43.26-6-57.24-14.85-31.87-20.21-41.94-59.39-48.09-98.72-5.81-37.23-5.52-74.73-4.65-113.09.32-14.34,1.17-28.68,2-40.83q.53-8.21,1.11-16.49c3.24-47.49,6.6-96.6-2.42-142.46-7.52-38.33-39.9-73.74-68.46-105-6.07-6.64-11.81-12.92-17.12-19-8.07-9.27-17.12-18.8-26.7-28.89-33.3-35.07-71-74.83-79.93-118-1.78-8.55-1.61-15.57.53-21.49,3.17-8.76,10.71-15.5,18.4-21.49,12.53-9.8,26.54-18.12,40.09-26.17,7.37-4.38,15-8.91,22.34-13.65l.27.42-.27-.42c106.68-68.83,261.48-102.29,374.51-126.72q14.63-3.16,29.26-6.4c42.46-9.34,86.38-19,129.77-25.27,14.54-2.1,30.05-4.25,45.82-5.4,33.29-2.36,58.65.5,79.82,9a102.05,102.05,0,0,1,17.2,8.8c1.5,1,3,2,4.42,3l1.47,1.1c15.77,12,28.12,27.81,38.45,41.74a1076.85,1076.85,0,0,1,131.19,233.56c39.54,97.42,59.89,178.18,62.22,246.9.17,5.32.23,10.63.17,15.79-.37,31-8,58.67-22,80.09-15.54,23.79-41.11,43.51-76,58.61-28.54,12.36-60.07,19.47-90.56,26.36q-7.65,1.73-15.29,3.48c-27.22,6.28-61,15.91-80.79,34.73-8.53,8.11-14.48,17.23-20.23,26.05-6.09,9.34-12.38,19-21.71,27.36-16.73,15-38.83,28.68-67.54,41.8-.94.43-1.89.83-2.84,1.23l-1.23.52c-8.92,3.79-18,7.21-27.56,10.82-5.55,2.09-11.3,4.26-17.06,6.52-12.24,4.78-24.73,10.24-36.79,15.51-9.67,4.23-19.67,8.6-29.58,12.64C870.23,1470.8,814.39,1483.51,763.77,1483.52ZM1129.33,539.4c-6.68,0-13.72.27-21.16.79-15.73,1.15-31.23,3.3-45.75,5.4-43.36,6.27-87.25,15.92-129.7,25.26q-14.63,3.22-29.26,6.4c-113,24.41-267.65,57.85-374.18,126.58-7.36,4.75-15,9.28-22.37,13.66-13.52,8-27.5,16.34-40,26.1-7.57,5.9-15,12.52-18.07,21-2.08,5.73-2.24,12.58-.5,20.94,8.83,42.92,46.46,82.57,79.67,117.54,9.59,10.1,18.64,19.64,26.73,28.93,5.3,6.09,11,12.36,17.11,19,28.65,31.34,61.13,66.86,68.7,105.46,9,46,5.69,95.17,2.44,142.72q-.56,8.27-1.11,16.49c-.79,12.13-1.65,26.47-2,40.79-.87,38.3-1.17,75.76,4.64,112.91,6.11,39.09,16.1,78,47.63,98,13.83,8.76,31.86,13.43,56.75,14.7,54.35,2.74,114.73-9.76,184.55-38.24,9.9-4,19.89-8.4,29.56-12.63,12.08-5.28,24.57-10.74,36.83-15.53,5.77-2.26,11.52-4.43,17.08-6.52,9.58-3.61,18.63-7,27.52-10.8l1.24-.53c.94-.4,1.88-.79,2.81-1.22,28.62-13.07,50.63-26.69,67.29-41.63,9.23-8.28,15.49-17.88,21.54-27.16,5.78-8.87,11.76-18,20.38-26.23,20-19,53.91-28.66,81.26-35q7.64-1.76,15.29-3.48c30.45-6.87,61.93-14,90.38-26.3,34.7-15,60.12-34.62,75.55-58.24,13.89-21.26,21.43-48.77,21.79-79.56.06-5.14,0-10.44-.17-15.74-2.33-68.59-22.65-149.24-62.15-246.55a1075.85,1075.85,0,0,0-131.07-233.34c-10.3-13.87-22.59-29.66-38.26-41.53l-1.45-1.09c-1.41-1-2.89-2-4.37-3a101.09,101.09,0,0,0-17-8.72C1171.24,542.58,1152.41,539.4,1129.33,539.4Z" fill="#ffcecc"/><path d="M765.6,1427.41q-7.07,0-14-.36c-22.58-1.18-39-5.42-51.72-13.34-29.26-18.26-39-54.84-44.65-88.22-5.62-33.12-5.57-66.78-5-101.22.2-12.86.89-25.71,1.54-36.59q.44-7.55.93-15.16c2.64-42.42,5.38-86.29-2.62-127.3-6.68-34.35-35-66.25-60-94.38-5.4-6.08-10.5-11.82-15.22-17.41-7.18-8.5-15.25-17.22-23.79-26.46-29-31.38-61.89-66.94-69.53-105.43-1.54-7.63-1.38-13.92.52-19.21,2.8-7.83,9.44-13.92,16.2-19.33,10.57-8.5,22.41-15.73,33.85-22.73,7-4.28,14.22-8.7,21.14-13.39l.28.41-.28-.41c94.39-64,233.39-92.17,345.09-114.83l3.11-.63c10.94-2.22,22.07-4.56,32.83-6.82,35.78-7.51,72.77-15.28,109.25-20.11,12.3-1.63,26.61-3.44,40.85-4.29,29.59-1.7,52.14,1.14,71,8.93a92.57,92.57,0,0,1,15.28,8c1.34.87,2.66,1.79,3.93,2.74l1.31,1c14.21,10.91,25.14,25,34.26,37.4A982.81,982.81,0,0,1,1329,849.89c35.91,87.92,54.7,161,57.44,223.45.2,4.82.3,9.62.29,14.29,0,28-6.55,53.18-18.81,72.73-13.78,22-36.59,40.14-67.79,54-27.79,12.35-58.85,18.85-88.88,25.14l-8.59,1.8c-25.08,5.3-56.25,13.41-74.86,29.23-8,6.84-13.82,14.59-19.41,22.08-5.92,7.94-12,16.16-20.84,23.18-15.54,12.41-36.11,23.83-62.88,34.93-.84.35-1.69.67-2.54,1l-1.23.47c-6.91,2.64-13.88,5-21.25,7.58-6.5,2.24-13.22,4.55-20,7.08-12.39,4.6-24.95,10.11-37.1,15.45-7.86,3.45-16,7-24,10.32C861.73,1416,811.51,1427.41,765.6,1427.41Zm334.56-846.7q-7.52,0-15.73.47c-14.21.86-28.5,2.66-40.78,4.29-36.44,4.82-73.42,12.59-109.17,20.1-10.76,2.26-21.89,4.6-32.83,6.82l-3.11.63C786.93,635.66,648,663.85,553.81,727.7c-6.94,4.7-14.18,9.13-21.18,13.41-11.42,7-23.23,14.21-33.75,22.66-6.65,5.32-13.17,11.29-15.88,18.89-1.83,5.11-2,11.22-.48,18.67,7.59,38.22,40.37,73.67,69.29,105,8.55,9.24,16.62,18,23.81,26.49,4.72,5.58,9.81,11.32,15.2,17.39,25.08,28.24,53.5,60.24,60.23,94.86,8,41.14,5.29,85.07,2.64,127.56q-.47,7.6-.93,15.16c-.65,10.87-1.34,23.71-1.54,36.55-.57,34.39-.62,68,5,101,10,59.09,28,77.41,44.2,87.54,12.55,7.83,28.83,12,51.24,13.19q6.9.36,13.94.36c45.78,0,95.87-11.42,152.61-34.73,8-3.3,16.15-6.86,24-10.31,12.16-5.34,24.74-10.86,37.15-15.47,6.8-2.54,13.52-4.85,20-7.09,7.37-2.54,14.33-4.93,21.22-7.57l1.23-.47c.84-.32,1.68-.64,2.51-1,26.69-11.06,47.18-22.43,62.64-34.78,8.69-6.94,14.78-15.1,20.66-23,5.62-7.53,11.43-15.33,19.56-22.24,18.77-16,50.1-24.12,75.3-29.44l8.59-1.8c30-6.28,61-12.77,88.68-25.07,31-13.78,53.67-31.82,67.35-53.62,12.16-19.39,18.61-44.36,18.66-72.2,0-4.65-.09-9.44-.29-14.25-2.74-62.32-21.51-135.3-57.37-223.11a981.8,981.8,0,0,0-118.8-211.44c-9.08-12.32-20-26.37-34.06-37.2l-1.29-1c-1.26-.93-2.56-1.84-3.89-2.7A91.57,91.57,0,0,0,1155,590C1139.75,583.75,1122.08,580.71,1100.16,580.71Z" fill="#ffcecc"/><path d="M767.42,1371.3q-6.63,0-13.14-.35c-20.09-1.09-34.76-4.84-46.19-11.82-26.57-16.24-35.75-48.4-41.22-77.72-5.42-29.07-5.63-58.85-5.36-89.36.09-11.38.62-22.74,1.11-32.35q.35-6.9.74-13.86c2-37.34,4.16-76-2.82-112.12C654.7,1003.34,630.42,975,609,949.93c-4.72-5.52-9.18-10.73-13.31-15.81-6.26-7.69-13.3-15.58-20.75-23.93-24.73-27.71-52.76-59.11-59.25-92.92-1.31-6.85-1.15-12.22.5-16.92,2.43-6.91,8.16-12.33,14-17.17,8.76-7.29,18.6-13.53,28.12-19.57,6.45-4.09,13.12-8.32,19.45-12.87l.29.41-.29-.41c83.07-59.68,210-83.34,311.91-102.35l10-1.86c11.24-2.1,22.67-4.36,33.71-6.55,30-5.93,60.94-12.06,91.41-15.63,10.7-1.25,23.18-2.63,35.88-3.19,25.89-1,45.62,1.77,62.13,8.86a83.12,83.12,0,0,1,13.36,7.18c1.16.77,2.32,1.59,3.44,2.44l1.14.88c12.48,9.72,22.06,22.16,30.06,33.06a898,898,0,0,1,106.65,189.75c32.28,78.4,49.51,143.82,52.67,200,.23,4.32.37,8.62.42,12.79.28,25.09-5.14,47.69-15.67,65.37-12,20.17-32.06,36.79-59.58,49.4-27,12.39-57.7,18.15-87.35,23.72l-1.74.33c-24.4,4.59-51.67,11-68.93,23.73-7.55,5.57-13.15,11.94-18.57,18.09-5.77,6.55-11.74,13.33-20,19-14.44,9.94-32.94,18.85-58.21,28.05-.79.29-1.58.55-2.38.81L997,1305c-5.31,1.78-10.63,3.39-16.27,5.1-7,2.13-14.27,4.32-21.62,6.9-12.16,4.23-24.41,9.65-36.25,14.89-6.41,2.84-13,5.77-19.6,8.49C853.21,1361.13,808.61,1371.3,767.42,1371.3ZM1070.74,622q-4.87,0-10.05.21c-12.67.55-25.13,1.93-35.81,3.18-30.43,3.56-61.39,9.69-91.33,15.61-11.05,2.19-22.48,4.45-33.72,6.55l-10,1.86C788,668.37,661.24,692,578.34,751.56c-6.35,4.56-13,8.8-19.5,12.9-9.49,6-19.3,12.24-28,19.49-5.34,4.42-11.23,9.72-13.7,16.73-1.6,4.53-1.74,9.74-.46,16.4,6.44,33.54,34.37,64.83,59,92.44,7.46,8.36,14.51,16.25,20.78,24,4.12,5.07,8.58,10.28,13.3,15.79,21.5,25.13,45.87,53.61,51.76,84.24,7,36.29,4.89,75,2.84,112.37q-.38,7-.74,13.86c-.5,9.6-1,21-1.11,32.31-.27,30.45-.07,60.19,5.34,89.16s14.52,61,40.76,77c11.28,6.89,25.81,10.6,45.72,11.68,44.66,2.4,93.26-7.58,148.56-30.51,6.55-2.72,13.17-5.65,19.58-8.48,11.87-5.25,24.14-10.68,36.33-14.92,7.37-2.58,14.64-4.78,21.66-6.91,5.63-1.71,10.95-3.32,16.24-5.09l1.09-.36c.78-.26,1.57-.51,2.35-.8,25.19-9.17,43.62-18,58-27.94,8.14-5.6,13.81-12,19.8-18.84,5.45-6.19,11.09-12.6,18.73-18.23,17.42-12.85,44.82-19.3,69.34-23.91l1.74-.33c29.6-5.56,60.2-11.31,87.12-23.65,27.34-12.53,47.23-29,59.14-49,10.44-17.52,15.8-39.94,15.53-64.84,0-4.16-.19-8.45-.42-12.75-3.16-56.06-20.36-121.38-52.6-199.67A897,897,0,0,0,1170,674.18c-8-10.84-17.49-23.22-29.87-32.86l-1.13-.87c-1.11-.83-2.25-1.64-3.4-2.4a82.13,82.13,0,0,0-13.2-7.09C1108.22,624.87,1091.63,622,1070.74,622Z" fill="#ffcecc"/><path d="M768.77,1315.18q-6,0-11.81-.33c-17.59-1-30.51-4.27-40.67-10.31-24-14.32-32.83-43.44-37.79-67.21-5.23-25.06-5.69-51-5.72-77.49,0-9.91.34-19.78.69-28.12q.26-6.27.55-12.6c1.45-32.25,2.95-65.6-3-96.91-5-26.4-25.24-51.24-43.09-73.16-4-5-7.86-9.65-11.4-14.22-5.34-6.9-11.36-14-17.73-21.43-20.48-24-43.7-51.25-49-80.38-1.07-5.92-.92-10.58.49-14.64,2.16-6.28,7.23-11,11.8-15,7.1-6.19,15.11-11.51,22.85-16.66,5.75-3.82,11.7-7.78,17.29-12.09l.31.4-.31-.4c72.62-56,188.45-75.2,281.52-90.63l14-2.33c10.81-1.81,21.78-3.81,32.4-5.75,24.86-4.54,50.57-9.24,75.78-11.68,9.77-.94,20.29-1.85,30.92-2.08,22.17-.38,39.11,2.41,53.29,8.79a73.8,73.8,0,0,1,11.45,6.37c1,.68,2,1.4,3,2.14l1,.77c9.65,7.67,17.32,17,25.86,28.72a814.22,814.22,0,0,1,94.38,167.84c28.64,68.87,44.31,126.62,47.9,176.55.26,3.82.45,7.61.55,11.29.6,22.15-3.73,42.2-12.53,58-10.23,18.38-27.52,33.45-51.38,44.8-24.13,11.48-50.83,16.38-80.72,21.16-23.35,3.74-47.15,8.54-63,18.23-7,4.3-12.46,9.28-17.71,14.09-5.63,5.17-11.46,10.51-19.16,14.84-16.74,9.41-36.46,16-53.55,21.18-.7.21-1.41.4-2.12.59l-1,.28c-3.89,1.07-7.76,2-11.86,3.08-7.34,1.85-14.92,3.76-22.65,6.25-11.66,3.74-23.32,9-34.6,14-5.23,2.34-10.64,4.76-16,7C845.11,1306.1,805.08,1315.18,768.77,1315.18Zm272.12-652.05q-1.95,0-3.95,0c-10.6.23-21.08,1.13-30.84,2.07-25.16,2.43-50.85,7.13-75.69,11.66-10.62,1.94-21.6,3.95-32.41,5.75L884,685c-93,15.42-208.66,34.6-281.08,90.44-5.62,4.33-11.58,8.29-17.35,12.13-7.72,5.13-15.7,10.43-22.75,16.58-4.48,3.88-9.44,8.53-11.51,14.57-1.34,3.9-1.49,8.39-.45,14.14,5.22,28.86,28.34,56,48.75,79.91,6.38,7.48,12.4,14.55,17.76,21.47,3.53,4.56,7.34,9.25,11.38,14.2,17.93,22,38.25,47,43.3,73.61,6,31.42,4.48,64.83,3,97.14q-.28,6.32-.55,12.59c-.35,8.33-.71,18.18-.69,28.07,0,26.48.49,52.32,5.7,77.29,9.36,44.87,24.86,59.14,37.32,66.56,10,6,22.79,9.19,40.21,10.17,39.23,2.2,83.15-6.76,130.56-26.65,5.34-2.24,10.74-4.66,16-7,11.3-5.05,23-10.27,34.7-14,7.76-2.51,15.36-4.42,22.71-6.27,4.1-1,8-2,11.84-3.07l1-.28c.7-.19,1.4-.37,2.09-.58,17-5.17,36.69-11.73,53.35-21.09,7.6-4.27,13.12-9.34,19-14.71,5.28-4.85,10.74-9.86,17.86-14.21,16-9.79,39.91-14.61,63.37-18.37,29.81-4.77,56.44-9.65,80.45-21.08,23.67-11.26,40.81-26.2,50.94-44.39,8.71-15.64,13-35.52,12.4-57.49-.1-3.66-.29-7.45-.55-11.25-3.58-49.81-19.23-107.46-47.82-176.23a813.18,813.18,0,0,0-94.26-167.63c-8.49-11.62-16.1-20.92-25.67-28.53l-1-.76c-.95-.73-1.93-1.44-2.91-2.11a72.75,72.75,0,0,0-11.29-6.28C1076.61,665.93,1061,663.13,1040.89,663.13Z" fill="#ffcecc"/><path d="M770.64,1259.08q-5.56,0-11-.32c-14.88-.89-26.37-3.76-35.14-8.79-21.4-12.3-29.6-36.76-34.36-56.71-5-21.12-5.75-43.09-6.08-65.63-.13-8.45.06-16.81.26-23.88q.16-5.67.35-11.38c.86-27.15,1.75-55.22-3.19-81.65-4.17-22.41-20.37-43.73-34.66-62.53-3.35-4.41-6.52-8.58-9.46-12.66-4.39-6.09-9.36-12.3-14.61-18.88C606.47,896.3,588,873.23,584,848.76c-.83-5-.68-8.92.47-12.35,1.77-5.31,5.88-9.41,9.6-12.84a174.83,174.83,0,0,1,18-14c4.91-3.48,10-7.08,14.7-11l.32.38-.32-.38c27.9-23.49,66.94-41.57,119.37-55.28,45.18-11.81,92.46-18.41,134.18-24.24L896,716.8c9.75-1.38,19.65-3,29.23-4.54,20.37-3.31,41.44-6.73,62-8.14,8.23-.56,17.07-1.07,26-1,18.11.22,32.65,3.07,44.44,8.71a64.73,64.73,0,0,1,9.53,5.55c.83.59,1.66,1.21,2.46,1.84l.82.66c8.56,7,15.47,15.85,21.66,24.38a731.91,731.91,0,0,1,82.1,145.93c25,59.32,39.09,109.4,43.13,153.09.3,3.32.52,6.61.68,9.79.92,19.21-2.32,36.72-9.38,50.64-8.42,16.6-22.95,30.13-43.18,40.21-22.71,11.31-49.25,15.36-72.35,18.27-20.68,2.6-42.12,5.73-57.09,12.74a116,116,0,0,0-16.78,10.08c-5.78,4-11.23,7.69-18.4,10.69-15,6.28-32.36,10.51-48.87,14.3-.62.14-1.25.26-1.87.38l-1,.19c-2.7.55-5.44,1.06-8.2,1.57-7.42,1.38-15.08,2.81-22.93,5.09-11,3.16-21.84,8.08-32.35,12.84-4.25,1.93-8.64,3.92-13,5.76C836.44,1251.3,802.18,1259.08,770.64,1259.08Zm240.15-554.94c-8,0-16,.46-23.47,1-20.51,1.41-41.55,4.82-61.91,8.12-9.58,1.55-19.49,3.16-29.25,4.55L880.45,720c-41.69,5.82-88.95,12.41-134.07,24.21-52.27,13.67-91.19,31.69-119,55.08-4.74,4-9.83,7.6-14.76,11.1a174,174,0,0,0-17.92,13.92c-3.63,3.34-7.64,7.33-9.33,12.42-1.09,3.27-1.23,7-.43,11.87,4,24.21,22.37,47.17,38.56,67.43,5.27,6.59,10.24,12.81,14.65,18.92,2.93,4.07,6.1,8.23,9.45,12.64,14.36,18.89,30.64,40.3,34.85,63,5,26.53,4.06,54.66,3.2,81.86q-.18,5.7-.34,11.37c-.2,7.06-.39,15.41-.26,23.84.33,22.48,1,44.4,6,65.41,4.71,19.75,12.81,44,33.88,56.07,8.63,5,20,7.78,34.7,8.66,34.37,2,72.24-5.63,112.56-22.79,4.33-1.84,8.72-3.83,13-5.75,10.54-4.78,21.43-9.72,32.48-12.89,7.9-2.29,15.59-3.73,23-5.11,2.76-.52,5.5-1,8.19-1.57l1-.19c.61-.12,1.23-.23,1.84-.37,16.47-3.78,33.79-8,48.71-14.25,7.07-3,12.49-6.67,18.22-10.6a116.7,116.7,0,0,1,16.92-10.16c15.1-7.07,36.63-10.21,57.39-12.83,23-2.9,49.46-6.93,72-18.17,20-10,34.41-23.36,42.73-39.76,7-13.76,10.19-31.1,9.27-50.14-.15-3.17-.38-6.45-.67-9.75-4-43.59-18.11-93.57-43.05-152.79a730.91,730.91,0,0,0-82-145.73c-6.15-8.48-13-17.27-21.48-24.19L1069,720c-.79-.62-1.6-1.23-2.42-1.81a63.67,63.67,0,0,0-9.38-5.47c-11.66-5.58-26.06-8.4-44-8.62Z" fill="#ffcecc"/><path d="M772.13,1203q-5,0-9.82-.31c-12.4-.79-22.09-3.17-29.61-7.28-19-10.39-26.76-31.34-30.93-46.2-4.84-17.25-5.81-35.28-6.44-53.77-.25-7-.22-13.83-.17-19.64q0-5.11.12-10.26c.28-22,.57-44.77-3.34-66.29-3.33-18.43-15.51-36.19-26.26-51.85-2.66-3.88-5.17-7.54-7.51-11.14-3.41-5.25-7.27-10.58-11.37-16.23-12.12-16.71-25.85-35.65-28.7-55.5a22.14,22.14,0,0,1,.45-10.06c1.37-4.3,4.54-7.76,7.4-10.67a138.56,138.56,0,0,1,13.56-11.58c3.94-3.08,8-6.27,11.74-9.78,53.56-50.55,154.28-61.14,227.82-68.88q7.78-.82,15.14-1.61c8.15-.88,16.42-2,24.43-3,16.42-2.18,33.4-4.43,49.85-4.89,6.23-.17,13.59-.29,21,.15,14.43.85,26.07,3.67,35.59,8.64a56,56,0,0,1,7.61,4.74q1,.75,2,1.54l.66.55c6.89,5.85,12.46,13.09,17.45,20a652.42,652.42,0,0,1,69.83,124c21.31,49.74,33.85,92.14,38.35,129.64.33,2.81.6,5.6.81,8.3,1.24,16.29-.91,31.25-6.23,43.27-6.57,14.85-18.34,26.83-35,35.62-19.93,10.52-43.53,13.68-64,15.38l-1.9.16c-17.55,1.46-35.69,3-49.28,7.09a138.45,138.45,0,0,0-15.65,6,111,111,0,0,1-17.85,6.56c-12.48,3.16-25.86,5-38.81,6.7l-5.38.73c-.55.08-1.1.13-1.65.18l-.91.09c-1.72.19-3.46.37-5.21.55a158.3,158.3,0,0,0-22.55,3.45c-10.15,2.5-20.06,7.08-29.65,11.51-3.41,1.57-6.93,3.2-10.41,4.71C828,1196.36,798.79,1203,772.13,1203ZM651.6,822.77l.34.36c-3.76,3.55-7.85,6.75-11.81,9.84a137.84,137.84,0,0,0-13.46,11.49c-2.78,2.82-5.85,6.18-7.16,10.27a21.19,21.19,0,0,0-.42,9.61C621.92,884,635,902,647.63,919.41c4.1,5.66,8,11,11.4,16.27,2.33,3.59,4.84,7.25,7.5,11.12,10.8,15.75,23.05,33.61,26.42,52.24,3.93,21.61,3.64,44.42,3.35,66.48q-.07,5.14-.12,10.25c-.06,5.8-.08,12.66.16,19.6.63,18.43,1.59,36.4,6.4,53.54,4.12,14.68,11.76,35.38,30.44,45.59,7.39,4,16.94,6.37,29.19,7.16,29,1.85,61.75-4.7,94.57-18.93,3.47-1.5,7-3.13,10.39-4.7,9.63-4.45,19.58-9,29.82-11.57a159.08,159.08,0,0,1,22.68-3.47c1.75-.18,3.48-.36,5.2-.55l.92-.09c.54-.05,1.07-.11,1.61-.18l5.38-.73c12.92-1.73,26.27-3.53,38.69-6.68a110.14,110.14,0,0,0,17.69-6.51,139.22,139.22,0,0,1,15.76-6.09c13.69-4.16,31.89-5.67,49.49-7.13l1.9-.16c20.36-1.69,43.83-4.83,63.6-15.27,16.43-8.67,28-20.5,34.53-35.14,5.25-11.87,7.38-26.66,6.15-42.79-.21-2.68-.48-5.46-.8-8.25-4.49-37.4-17-79.71-38.28-129.36A651.37,651.37,0,0,0,1052,780.24c-5-6.9-10.48-14.08-17.29-19.86l-.64-.54q-.95-.78-1.93-1.51a55,55,0,0,0-7.47-4.66c-9.39-4.9-20.9-7.7-35.19-8.53-7.36-.43-14.7-.32-20.9-.14-16.4.45-33.35,2.7-49.75,4.88-8,1.06-16.29,2.16-24.45,3q-7.35.8-15.15,1.61c-73.4,7.72-173.93,18.29-227.24,68.61Z" fill="#ffcecc"/><path d="M774.12,1146.88q-4.52,0-9.13-.32c-9.91-.7-17.79-2.58-24.07-5.76-12.37-6.26-21.36-17.93-27.5-35.68-4.66-13.47-5.91-28.09-6.8-41.92-.36-5.51-.51-11.13-.59-15.41-.07-3.12-.12-6.26-.17-9.41-.28-16.79-.56-34.15-3.43-50.67-2.49-14.42-10.68-28.58-17.9-41.09-2-3.38-3.8-6.57-5.52-9.73-2.37-4.35-5.06-8.73-7.91-13.38-8.44-13.76-17.17-28-18.83-43.3a19.51,19.51,0,0,1,.44-7.76c1-3.33,3.19-6.13,5.18-8.49a106.24,106.24,0,0,1,9.53-9.52c2.81-2.58,5.72-5.25,8.34-8.15,19.7-21.81,50.6-37,94.47-46.34,37.36-8,77.72-10.32,110.15-12.2l12.08-.71c6-.37,12.15-.89,18.07-1.4,13-1.11,26.41-2.27,39.26-1.78,6.47.25,11.42.64,16,1.26,10.73,1.45,19.48,4.26,26.74,8.58a49.12,49.12,0,0,1,5.68,3.93q.75.61,1.48,1.25l.49.44c5.21,4.71,9.44,10.32,13.25,15.69A578.25,578.25,0,0,1,1071,917.12c17.58,40.08,28.56,74.81,33.58,106.18.36,2.31.67,4.59.93,6.8,1.57,13.39.51,25.8-3.08,35.89-4.66,13.12-13.66,23.56-26.77,31-14,8-31.12,11.81-55.64,12.5-4.24.12-8.59.19-12.79.26-11.77.2-22.89.39-32.51,1.48-5,.56-9.43,1.33-13.75,2.07a158.57,158.57,0,0,1-18.06,2.38c-8.84.53-17.81.52-26.49.5-4.53,0-8.81,0-13,.06h-2.25l-2.83,0c-6.95,0-14.13-.1-21.54,1.35-9.21,1.79-18,6-26.59,10-2.68,1.27-5.45,2.58-8.19,3.8C825.65,1138.7,801.22,1146.88,774.12,1146.88ZM676.49,847h0c-2.65,2.94-5.58,5.62-8.41,8.22a105.51,105.51,0,0,0-9.44,9.43c-2,2.39-4.06,5-5,8.13a18.57,18.57,0,0,0-.4,7.37c1.64,15.09,10.31,29.22,18.69,42.89,2.86,4.66,5.55,9.05,7.93,13.42,1.71,3.14,3.55,6.33,5.5,9.71,7.26,12.57,15.5,26.82,18,41.42,2.89,16.6,3.17,34,3.45,50.83.05,3.14.1,6.28.17,9.4.09,4.27.23,9.87.59,15.36.88,13.76,2.13,28.3,6.75,41.65,6,17.49,14.88,29,27,35.11,6.17,3.12,13.92,5,23.69,5.65,30.5,2.13,58.47-7,76.57-15.07,2.73-1.21,5.49-2.52,8.16-3.79,8.6-4.08,17.5-8.29,26.83-10.11,7.5-1.48,14.74-1.42,21.73-1.37l2.82,0h2.23c4.21-.07,8.49-.06,13-.06,8.66,0,17.62,0,26.43-.5a157.9,157.9,0,0,0,17.95-2.36c4.34-.74,8.82-1.51,13.81-2.08,9.67-1.1,20.81-1.29,32.6-1.49,4.2-.07,8.55-.15,12.78-.26,24.35-.68,41.36-4.5,55.17-12.37,12.89-7.35,21.75-17.61,26.32-30.5,3.53-10,4.58-22.21,3-35.44-.26-2.19-.57-4.47-.93-6.76-5-31.28-16-65.93-33.51-105.93a577.22,577.22,0,0,0-57.45-101.93c-3.77-5.32-8-10.88-13.1-15.53l-.48-.43q-.71-.62-1.44-1.22a48.06,48.06,0,0,0-5.57-3.84c-7.14-4.25-15.76-7-26.36-8.45-4.57-.62-9.49-1-15.93-1.25-12.79-.49-26.18.66-39.14,1.77-5.93.51-12.07,1-18.1,1.4l-12.08.71c-32.39,1.88-72.71,4.21-110,12.18-43.65,9.33-74.37,24.39-93.93,46Z" fill="#ffcecc"/><path d="M775.69,1090.78q-4.06,0-8-.32a56.69,56.69,0,0,1-18.53-4.23c-10.28-4.56-18.6-13.26-24.06-25.15-4.06-8.84-5.8-18.42-7.17-30.07-.48-4-.79-8.07-1-11.17s-.45-6.4-.67-9.62c-.75-11.22-1.53-22.83-3.32-34-1.64-10.29-5.69-20.27-9.6-29.93-1.23-3-2.39-5.88-3.47-8.73-1.23-3.25-2.61-6.49-4.08-9.92-4.35-10.18-8.84-20.71-9.33-31.69a18.31,18.31,0,0,1,.42-5.43,22.4,22.4,0,0,1,3-6.29,85.28,85.28,0,0,1,6-8.13c1.51-1.89,3.06-3.84,4.48-5.87h0c29.14-41.61,98.2-44.12,153.69-46.14,13.27-.48,25.81-.94,36.69-1.9a166.11,166.11,0,0,1,40.46,1.57,96.88,96.88,0,0,1,11.06,2.38A54.12,54.12,0,0,1,960,834.65a44.15,44.15,0,0,1,3.75,3.11q.5.47,1,.95l.33.33a83.53,83.53,0,0,1,9,11.34,517.52,517.52,0,0,1,45.28,80.19c13.55,29.81,23.24,57.63,28.8,82.71.39,1.8.75,3.58,1.06,5.3,1.93,10.68,2,20.27.08,28.51a41.07,41.07,0,0,1-18.56,26.47c-11.83,7.5-26.86,10.55-47.3,9.61-10.53-.48-21.27-1.71-31.66-2.9l-7.76-.87-6-.64c-8.22-.87-16-1.69-24.13-3.08-5.38-.92-10.68-1.93-15.8-2.92-6.76-1.3-13.15-2.52-19-3.38l-1.07-.17-.86-.14-.82-.13c-6.49-1-13.2-2.07-20.15-1.19-8.19,1-15.87,4.8-23.29,8.45-2,1-4.12,2-6.2,3A123.52,123.52,0,0,1,775.69,1090.78Zm-75-220.27.41.29c-1.44,2.06-3,4-4.52,5.92a84.52,84.52,0,0,0-5.9,8,21.54,21.54,0,0,0-2.83,6,17.39,17.39,0,0,0-.39,5.14c.48,10.81,4.94,21.25,9.25,31.34,1.47,3.44,2.86,6.69,4.1,10,1.08,2.84,2.23,5.69,3.46,8.71,3.94,9.7,8,19.74,9.66,30.14,1.8,11.22,2.58,22.85,3.33,34.1.22,3.21.43,6.42.67,9.61s.54,7.14,1,11.13c1.36,11.56,3.08,21,7.09,29.77,5.43,11.83,13.36,20.13,23.56,24.65a55.72,55.72,0,0,0,18.2,4.15c18.85,1.51,39.64-2.47,58.56-11.21,2.06-1,4.15-2,6.17-3,7.5-3.69,15.26-7.5,23.61-8.55,7.08-.9,13.87.16,20.43,1.19l.81.13.88.14,1.05.17c5.88.86,12.28,2.09,19.05,3.39,5.12,1,10.41,2,15.78,2.91,8.1,1.38,15.86,2.2,24.07,3.07l6,.64,7.77.88c10.38,1.19,21.1,2.41,31.6,2.89,20.23.93,35.07-2.08,46.72-9.46a40.11,40.11,0,0,0,18.12-25.85c1.85-8.1,1.82-17.56-.09-28.11-.31-1.7-.66-3.47-1.05-5.26-5.55-25-15.22-52.77-28.74-82.51a516.59,516.59,0,0,0-45.19-80,82.68,82.68,0,0,0-8.92-11.21l-.32-.32q-.47-.47-1-.92a43.06,43.06,0,0,0-3.67-3,53.14,53.14,0,0,0-17.55-8.36,95.83,95.83,0,0,0-10.95-2.35,165.08,165.08,0,0,0-40.21-1.57c-10.91,1-23.46,1.42-36.75,1.91-55.27,2-124,4.51-152.9,45.71Z" fill="#ffcecc"/><path d="M959.31,1057.77c-25.41,0-56.77-14.19-81.56-25.41-9.53-4.31-17.76-8-24.6-10.52-5.35-1.94-11.41-4.14-17.56-4-7.13.23-13.59,3.59-19.84,6.84-1.45.75-2.89,1.5-4.34,2.21-24.11,11.84-59.52,11.44-74.67-9.86-5.31-7.46-7.36-16.52-9-25.15a475.36,475.36,0,0,1-7.11-53.78c-1-13.67-1.62-29.47,4.07-43.93,21-53.46,121.85-43.6,164.23-36.88,10.41,1.65,21.21,4,29.63,9.87a45.65,45.65,0,0,1,9,8.45,111.78,111.78,0,0,1,7.25,10.1,503.86,503.86,0,0,1,57,117.49c7.5,22.6,5.52,38.36-5.91,46.83C978.47,1055.55,969.35,1057.77,959.31,1057.77Zm-122.95-40.9c6.05,0,11.92,2.13,17.12,4,6.87,2.5,15.12,6.23,24.67,10.55,24.7,11.18,56,25.33,81.14,25.33,9.85,0,18.76-2.16,26-7.52,11-8.19,12.9-23.57,5.55-45.71a502.85,502.85,0,0,0-56.9-117.25,110.87,110.87,0,0,0-7.19-10h0A44.68,44.68,0,0,0,918,868c-8.26-5.77-18.92-8.07-29.22-9.71-42.14-6.68-142.38-16.53-163.14,36.26-5.61,14.27-5,29.93-4,43.49a474.25,474.25,0,0,0,7.09,53.67c1.63,8.53,3.65,17.47,8.84,24.76,11.56,16.25,42.91,24.51,73.41,9.54,1.44-.71,2.88-1.45,4.32-2.2,6.35-3.3,12.92-6.71,20.27-6.95Z" fill="#ffcecc"/><circle cx="2004" cy="1115.17" r="27" fill="#ffcecc"/><path d="M2004,1142.5a27.5,27.5,0,1,1,27.5-27.5A27.53,27.53,0,0,1,2004,1142.5Zm0-54a26.5,26.5,0,1,0,26.5,26.5A26.53,26.53,0,0,0,2004,1088.5Z" fill="#ffcecc"/><circle cx="1981" cy="1412.17" r="8" fill="#ffcecc"/><path d="M1981,1420.5a8.5,8.5,0,1,1,8.5-8.5A8.51,8.51,0,0,1,1981,1420.5Zm0-16a7.5,7.5,0,1,0,7.5,7.5A7.51,7.51,0,0,0,1981,1404.5Z" fill="#ffcecc"/></svg>