<svg xmlns="http://www.w3.org/2000/svg" viewBox="0 0 1532.69 1348.25"><title>left-shape</title><path d="M844,44.62C946.44,63.94,1044.92,111,1116.15,188.38c49.46,53.73,105.61,99.93,170.4,134,67.27,35.33,142.39,55.6,191,118.42,44,57,56.31,132.64,55.1,204.67-1,60.08-11,121.72-42.16,173.08-44.13,72.69-124.3,115.15-203.79,145.26-55.47,21-114.24,38.72-158.83,77.87-88.26,77.48-97.69,207.85-205.92,267-50.34,27.5-108.38,38.57-165.72,39.56-122.24,2.13-247.1-37.77-358.18-86.25-48.49-21.16-95.68-47.23-140.66-75.11-16.83-10.43-41.59-21.62-55-36.74,0,0-312.81-353.55-160.65-672S150-.13,379,0C607.9.13,843.64,44.56,844,44.62Z" fill="#ffdad7"/></svg>