<svg xmlns="http://www.w3.org/2000/svg" viewBox="0 0 2158.15 2044.16"><title>right-mesh</title><path d="M944.22,706.74c-9.16,0-17.83-2.55-24.05-7.61-9.08-7.4-11.62-19-7.13-32.79,2.49-7.63,6.61-14.66,10.6-21.46a147.26,147.26,0,0,0,8.56-16.11,43.7,43.7,0,0,0,.09-33.92,50.06,50.06,0,0,0-27.06-27.17c-19-7.87-42.49-4.61-61.36,8.5-2.07,1.44-4.12,3-6.1,4.53-4.83,3.7-9.82,7.53-15.58,9.8-16,6.31-28.31,5.92-36.51-1.16-23.35-20.14-7.45-88.72-2.22-111.26l.53-2.31c3.52-15.32,7.49-30.91,11.34-46,5.31-20.85,10.8-42.4,15.18-63.54,1.57-7.58,2.81-15.25,4-22.67,3.61-22.35,7-43.46,18.76-62.62h0A91.25,91.25,0,0,1,844,266.8c12.17-13.2,28.15-22.33,42.17-29.84,135.21-72.51,284.13-90.73,408.56-50,32.6,10.67,88.49,36.19,96.59,87.19,8.5,53.53-25.71,106.65-58.8,158-23.85,37-48.52,75.34-56,112.64q-1,4.83-1.91,9.73c-5.49,28.23-11.17,57.43-25.94,82.07-12.57,21-31.09,34.83-50.81,38.05a39.55,39.55,0,0,1-19.5-1.62c-6.69-2.42-11.46-6.65-13.81-12.23-3.32-7.87-1.12-16.39,1-24.62,1.56-6,3.16-12.27,2.67-18.32a26.17,26.17,0,0,0-47.13-13.43c-4.11,5.56-6,12.74-7.91,19.69-2.69,10-5.23,19.43-13.7,24.51-8.94,5.37-19.45,2.54-29.62-.19a90,90,0,0,0-15.18-3.17c-14.41-1.24-29.91,5.63-46,20.42-3.69,3.39-7.32,7-10.83,10.52-8.69,8.69-17.68,17.68-28.5,23.87A51.1,51.1,0,0,1,944.22,706.74Zm-60.88-144.3a58.08,58.08,0,0,1,22.28,4.31,51.06,51.06,0,0,1,27.6,27.71,44.7,44.7,0,0,1-.1,34.7,148,148,0,0,1-8.62,16.22c-4,6.75-8.05,13.74-10.51,21.27-4.35,13.33-1.94,24.59,6.81,31.7,11.68,9.51,32.33,9.9,48,.91,10.71-6.13,19.65-15.07,28.29-23.71,3.52-3.52,7.15-7.15,10.86-10.55,16.34-15,32.08-22,46.8-20.68a90.72,90.72,0,0,1,15.35,3.2c10.43,2.8,20.27,5.44,28.85.3,8.12-4.87,10.61-14.12,13.25-23.92,1.89-7,3.85-14.31,8.08-20a27.17,27.17,0,0,1,48.93,13.95c.5,6.22-1.12,12.54-2.7,18.65-2.18,8.44-4.23,16.42-1,24,4.79,11.37,19.84,15.27,32.23,13.25,19.43-3.17,37.69-16.87,50.12-37.58,14.69-24.49,20.35-53.6,25.82-81.74q1-4.9,1.91-9.74c7.47-37.49,32.19-75.87,56.1-113,33-51.22,67.09-104.18,58.65-157.33-3.25-20.48-14.83-38.86-34.4-54.63-15.9-12.81-37.17-23.79-61.51-31.76-124.18-40.66-272.8-22.47-407.78,49.91-13.95,7.48-29.84,16.55-41.91,29.64a90.23,90.23,0,0,0-10.58,14h0c-11.64,19-15,40-18.63,62.26-1.2,7.43-2.44,15.12-4,22.72-4.38,21.16-9.87,42.73-15.19,63.58-3.84,15.08-7.81,30.67-11.33,46l-.53,2.31c-5.19,22.39-21,90.53,1.9,110.27,7.9,6.81,19.84,7.14,35.49,1,5.63-2.22,10.57-6,15.34-9.66,2-1.53,4-3.11,6.14-4.56A70.76,70.76,0,0,1,883.34,562.44Z" fill="#dbbaba"/><path d="M943.86,769.94c-10,0-19.46-2.72-26.32-8.1-9-7.06-12.29-18-9.24-30.81,1.73-7.25,4.87-14,7.91-20.47A137.57,137.57,0,0,0,922.74,695c7.36-22.66-7.18-49-32.39-58.75-19.79-7.55-44.43-4.61-64.31,7.68-2.25,1.39-4.48,2.95-6.63,4.45-5.08,3.54-10.33,7.2-16.37,9.09-19,5.92-33.8,4.66-43.89-3.76-17.79-14.84-17.72-49-14.54-75.12,2.5-20.48,6.64-37.73,10.29-52.94,2.24-9.35,4.18-17.43,5.37-24.74,2.63-16.19,6-33,9.32-49.17,4.8-23.71,9.77-48.22,12.65-72.17,1.06-8.8,1.72-17.53,2.36-26,1.54-20.32,3-39.52,9.68-54.88a114.19,114.19,0,0,1,6.79-12.11l.53-.87a118,118,0,0,1,12-15.5l.37.34-.37-.34c11.55-12.52,29.88-22.47,47.66-31.58a766.46,766.46,0,0,1,170.42-63c63.84-15.1,125.31-20.38,182.72-15.71a409.34,409.34,0,0,1,100.11,20.2c58.05,19.75,99.67,58.31,106,98.24,6.9,43.44-3.89,119-33.36,165.33-3.19,5-6.54,10.21-10,15.58-24.62,38.18-55.27,85.7-68.73,132.33-1.73,6-3.45,12.18-5.11,18.16-8.32,30-16.92,61-32.32,86.28-13,21.45-32.23,36-52.79,40.05-12.49,2.39-28.74-.29-34.91-11.79-3.89-7.25-2.54-15.15-1.25-22.8,1-5.62,1.94-11.42.93-17.07-1.8-10.06-10.37-18.89-20.84-21.46a30.7,30.7,0,0,0-29.78,9.52c-4.49,5.32-6.95,12.15-9.33,18.76-3.47,9.64-6.76,18.74-15.77,23.64-9.43,5.15-20.4,2.47-31-.12a101.66,101.66,0,0,0-15.79-3c-15.07-1.18-31,5.17-48.58,19.41-3.94,3.19-7.82,6.6-11.58,9.9-9.41,8.26-19.13,16.8-30.6,22.66A57.17,57.17,0,0,1,943.86,769.94ZM867.06,631.07a66.33,66.33,0,0,1,23.64,4.2c25.71,9.93,40.5,36.84,33,60A138.23,138.23,0,0,1,917.11,711c-3,6.45-6.14,13.12-7.84,20.28-3.79,15.9,2.74,25,8.89,29.79,12.52,9.82,34,10.56,51.12,1.77,11.36-5.8,21-14.3,30.39-22.53,3.76-3.31,7.66-6.73,11.61-9.93,17.81-14.41,33.92-20.82,49.29-19.63a102.39,102.39,0,0,1,15.94,3c10.9,2.66,21.2,5.17,30.29.21,8.68-4.71,11.89-13.64,15.3-23.1,2.41-6.69,4.91-13.61,9.51-19.07,7.21-8.5,19.87-12.55,30.78-9.85s19.73,11.82,21.59,22.26c1,5.81,0,11.71-.93,17.41-1.33,7.82-2.58,15.21,1.14,22.16,4.16,7.75,16.52,14.59,33.84,11.28,20.29-3.95,39.29-18.38,52.13-39.59,15.32-25.15,23.91-56.1,32.21-86,1.66-6,3.37-12.16,5.11-18.17,13.5-46.77,44.19-94.36,68.85-132.59,3.46-5.37,6.81-10.57,10-15.57,29.34-46.14,40.09-121.38,33.22-164.64-6.28-39.56-47.63-77.81-105.34-97.45a408.34,408.34,0,0,0-99.87-20.15c-57.3-4.67-118.67.61-182.41,15.68a765.5,765.5,0,0,0-170.2,62.94c-17.7,9.07-35.94,19-47.38,31.37h0a116.79,116.79,0,0,0-11.9,15.34l-.53.87a113.67,113.67,0,0,0-6.73,12c-6.62,15.21-8.07,34.33-9.6,54.56-.64,8.45-1.3,17.19-2.36,26-2.88,24-7.85,48.52-12.66,72.25-3.28,16.21-6.68,33-9.31,49.13-1.2,7.35-3.14,15.45-5.39,24.82-3.64,15.19-7.78,32.4-10.27,52.83-3.15,25.83-3.25,59.68,14.19,74.23,9.81,8.19,24.26,9.39,42.95,3.57,5.9-1.84,11.08-5.45,16.1-9,2.16-1.51,4.4-3.07,6.68-4.48A79.82,79.82,0,0,1,867.06,631.07Z" fill="#dbbaba"/><path d="M942.94,833.08c-10.95,0-21.35-2.83-28.8-8.38-6.37-4.75-13.5-13.61-11.34-28.87,1-6.88,3.15-13.27,5.25-19.46a132.19,132.19,0,0,0,4.48-15.13c4.66-22-12.31-47.33-37.82-56.41-20.82-7.41-46-4.85-67.26,6.86-2.42,1.33-4.81,2.83-7.12,4.28-5.36,3.36-10.9,6.84-17.2,8.45-23.12,5.92-40.93,3.41-52.95-7.48s-24.5-36.21-15.53-95c3.38-22.11,8.09-39.93,12.25-55.64,3.83-14.48,7.14-27,8.9-40.31,1.82-13.76,4-27.57,6.27-42.19,4.68-29.94,9.53-60.89,11.14-91,.55-10.32.65-20.39.75-30.13.23-23.46.43-43.71,6.77-58.28a92.28,92.28,0,0,1,6.15-10.38c.87-1.35,1.67-2.58,2.27-3.57,2.71-4.42,9.59-12.79,13.34-16.85,11-11.9,31.4-22.55,53.15-33.31a916.91,916.91,0,0,1,185.94-67.88c71.68-17.53,139.63-24.47,202-20.63,39.27,2.42,76.3,9.63,110,21.44,60.17,21.05,108.71,67,115.42,109.29,7.09,44.66,9.15,145.67-17.81,188.06-2.95,4.63-6.17,9.63-9.6,15-24.78,38.43-62.23,96.52-82,152.79-2.87,8.17-5.7,16.55-8.44,24.66-10.93,32.37-22.23,65.83-38.55,92.43-13.52,22-33.48,37.36-54.77,42.05-12.55,2.77-29.33.9-36.49-9.74-4.45-6.62-4-13.92-3.49-21,.35-5.19.71-10.57-.81-15.8-2.75-9.47-12.12-17.64-22.79-19.88-11.06-2.35-23.65,1.44-31.34,9.43-4.88,5.08-7.87,11.59-10.76,17.88-4.07,8.86-8.28,18-17.82,22.72-9.93,4.93-21.35,2.4-32.4,0a115,115,0,0,0-16.38-2.81c-15.53-1.1-32.25,4.91-51.11,18.39-4.16,3-8.29,6.17-12.28,9.25-10.14,7.83-20.63,15.93-32.75,21.49A64.16,64.16,0,0,1,942.94,833.08ZM849.73,699.65A75.56,75.56,0,0,1,875,703.88c26,9.24,43.22,35.06,38.46,57.56A133.18,133.18,0,0,1,909,776.69c-2.09,6.14-4.25,12.48-5.21,19.27-1.66,11.69,2.13,21.35,11,27.93,13.21,9.85,36,10.95,54.23,2.6,12-5.51,22.46-13.57,32.56-21.37,4-3.08,8.13-6.27,12.3-9.27,19.06-13.62,36-19.69,51.77-18.57a115.75,115.75,0,0,1,16.53,2.84c11.38,2.52,22.13,4.9,31.74.13,9.22-4.55,13.17-13.14,17.35-22.24,2.92-6.37,5.95-13,10.95-18.15,7.92-8.23,20.88-12.14,32.26-9.72,11,2.31,20.69,10.77,23.54,20.58,1.57,5.41,1.21,10.87.85,16.15-.49,7.21-.94,14,3.32,20.36,4.84,7.19,18,13.17,35.45,9.32,21-4.64,40.76-19.8,54.13-41.6,16.26-26.5,27.55-59.91,38.46-92.23,2.74-8.11,5.57-16.5,8.45-24.67,19.83-56.39,57.32-114.53,82.12-153,3.43-5.32,6.65-10.32,9.6-14.95,26.81-42.16,24.74-142.83,17.66-187.36-6.66-41.93-54.93-87.57-114.77-108.5-33.66-11.78-70.59-19-109.77-21.39-62.24-3.83-130.09,3.1-201.67,20.61a915.87,915.87,0,0,0-185.74,67.8c-21.66,10.72-42,21.32-52.86,33.09h0c-3.72,4-10.55,12.34-13.22,16.7-.61,1-1.41,2.23-2.29,3.59a92.06,92.06,0,0,0-6.07,10.24c-6.26,14.38-6.46,34.54-6.69,57.89-.1,9.75-.2,19.83-.75,30.17C752.59,423,747.74,454,743.05,484c-2.29,14.62-4.45,28.42-6.26,42.16-1.77,13.39-5.08,25.92-8.92,40.44-4.15,15.69-8.86,33.48-12.22,55.54-8.9,58.31,3.36,83.35,15.21,94.08s29.26,13.08,52,7.25c6.15-1.57,11.62-5,16.92-8.33,2.32-1.46,4.73-3,7.17-4.31A89.42,89.42,0,0,1,849.73,699.65Z" fill="#dbbaba"/><path d="M939.87,896.45c-11.79,0-23-2.93-31.21-8.65a30.3,30.3,0,0,1-13.53-27,112.68,112.68,0,0,1,2.63-18.42,134.43,134.43,0,0,0,2.38-14.68c1.91-21.69-17.09-45.44-43.25-54.08-21.61-7.14-47.85-4.88-70.2,6-2.58,1.26-5.13,2.69-7.6,4.07-5.66,3.17-11.5,6.45-18,7.86-27.33,5.88-48.26,2.07-62.22-11.35-25.67-24.66-23-76-16.31-114.67,4.26-24.5,9.73-43.58,14.55-60.41,5.32-18.55,9.91-34.56,12.07-53.82,1-9.29,2.18-18.63,3.37-28.52,4.64-38.35,9.43-78,9.48-116.42,0-12-.47-23.62-.95-34.81-1.08-25.46-2-47.44,4-61.13,1-2.34,3.89-6.55,6.42-10.27,1.24-1.82,2.41-3.54,3.1-4.66,2.58-4.21,11.08-14.33,14.66-18.21,10.44-11.31,33.69-23,58.64-35a1077.26,1077.26,0,0,1,201.43-72.9c79.58-20,154-28.54,221.24-25.39,43.18,2,83.55,9.66,120,22.68,42.21,15.09,70.67,38.39,87.12,55.29,20.8,21.37,34.55,45.08,37.72,65.05,4.4,27.69,25,168-2.25,210.78-2.63,4.14-5.61,8.77-8.87,13.83-25.89,40.22-69.23,107.53-95.63,173.74-4,10.13-8,20.5-11.87,30.53-14,36.56-27.28,71.09-44.7,99.21-14,22.55-34.65,38.6-56.75,44.05-12.62,3.11-29.92,2-38.07-7.69-5-6-5.36-12.39-5.73-19.17-.25-4.77-.52-9.7-2.56-14.53-3.8-9-13.74-16.35-24.74-18.3-11.38-2.06-24.59,1.69-32.89,9.34-5.26,4.84-8.76,11-12.15,17-4.83,8.51-9.82,17.31-19.91,21.82-10.42,4.71-22.31,2.33-33.81,0a130.27,130.27,0,0,0-17-2.64c-16.2-1-33.25,4.48-53.65,17.37-4.38,2.78-8.73,5.74-12.94,8.6-10.89,7.41-22.15,15.07-34.94,20.3A72,72,0,0,1,939.87,896.45Zm-109.56-128a85.94,85.94,0,0,1,26.89,4.16c26.59,8.78,45.89,33,43.94,55.12a135.07,135.07,0,0,1-2.4,14.79,111.9,111.9,0,0,0-2.61,18.26A29.34,29.34,0,0,0,909.23,887c14.22,9.93,37.77,11.29,57.26,3.31,12.69-5.19,23.91-12.82,34.75-20.2,4.21-2.87,8.57-5.83,13-8.62,20.58-13,37.81-18.58,54.25-17.52a131,131,0,0,1,17.1,2.65c11.86,2.38,23.07,4.62,33.2,0,9.79-4.38,14.48-12.65,19.45-21.4,3.42-6,7-12.27,12.34-17.22,8.65-8,21.9-11.73,33.75-9.58,11.32,2,21.56,9.59,25.49,18.89,2.11,5,2.38,10,2.63,14.87.35,6.61.69,12.85,5.49,18.58,7.88,9.4,24.74,10.4,37.06,7.36,21.85-5.39,42.31-21.28,56.14-43.61,17.37-28,30.61-62.53,44.62-99,3.85-10,7.83-20.41,11.87-30.54,26.44-66.31,69.81-133.67,95.72-173.92,3.26-5.06,6.24-9.69,8.87-13.83,27-42.49,6.5-182.46,2.11-210.08-3.14-19.78-16.79-43.29-37.45-64.51-16.37-16.82-44.71-40-86.74-55-36.33-13-76.59-20.6-119.68-22.62-67.12-3.15-141.47,5.38-220.95,25.36a1076.25,1076.25,0,0,0-201.24,72.84c-24.85,12-48,23.63-58.33,34.82l-.37-.34.37.34c-3.56,3.86-12,13.9-14.54,18.06-.7,1.15-1.83,2.79-3.12,4.7-2.38,3.5-5.35,7.85-6.33,10.1-5.86,13.47-4.94,35.35-3.87,60.69.47,11.2,1,22.79.95,34.86-.05,38.49-4.85,78.17-9.49,116.54-1.2,9.88-2.32,19.22-3.37,28.51-2.18,19.35-6.78,35.4-12.11,54-4.82,16.81-10.28,35.86-14.53,60.31-6.68,38.46-9.33,89.42,16,113.77,13.71,13.17,34.34,16.9,61.32,11.09,6.39-1.38,12.17-4.62,17.76-7.75,2.48-1.39,5-2.83,7.65-4.1A101.33,101.33,0,0,1,830.31,768.46Z" fill="#dbbaba"/><path d="M935,959.86c-12.6,0-24.63-3-33.66-8.79-9.51-6.11-15-14.87-15.81-25.33a131.55,131.55,0,0,1,.06-17.31c.23-4.59.46-9.34.23-14.29-1-21.3-21.93-43.56-48.7-51.77-22.73-7-49.39-5.07-73.15,5.21-2.74,1.19-5.45,2.54-8.07,3.85-6,3-12.11,6-18.87,7.28-31.63,5.79-55.73.61-71.64-15.4-16.23-16.33-32.35-52.87-17-134.18,5.15-27.22,11.47-47.88,17-66.12,6.76-22.14,12.61-41.26,15.07-66.4l.38-3.82c4.7-47.86,10-102.1,7.93-152.92-.57-13.93-1.69-27.14-2.78-39.92-2.4-28.37-4.3-50.79,1.26-63.57.92-2.13,4.1-6.59,6.9-10.52,1.62-2.27,3-4.24,3.72-5.38,2.36-3.86,12.43-15.72,16-19.57h0c9.93-10.77,36-23.54,64.12-36.77a1245.74,1245.74,0,0,1,216.91-78c87.47-22.47,168.39-32.6,240.54-30.09,47.06,1.64,90.76,9.68,129.89,23.92A242.91,242.91,0,0,1,1461,223.08c21.09,22.88,35.56,48.41,38.72,68.3.74,4.67,1.87,11.16,3.17,18.68,9.41,54.24,31.46,181.28,10.12,214.82-2.28,3.59-4.94,7.73-7.92,12.36-26.63,41.44-76.19,118.56-109.47,195-5.18,11.91-10.29,24.06-15.23,35.81-16.6,39.47-32.28,76.75-50.91,106.6-14.61,23.39-35.46,39.75-58.73,46.05-12.68,3.44-30.49,3.14-39.64-5.64-5.58-5.35-6.74-11.19-8-17.37-.86-4.34-1.75-8.82-4.3-13.24-4.88-8.47-15.37-15-26.7-16.72-11.91-1.77-25.43,1.86-34.45,9.24-5.63,4.6-9.64,10.44-13.51,16.08-5.6,8.15-11.39,16.57-22,20.92-10.94,4.47-23.29,2.25-35.23.09a148.71,148.71,0,0,0-17.53-2.45c-21.89-1.27-42.54,8.72-56.19,16.35-4.58,2.57-9.14,5.31-13.56,8-11.65,7-23.69,14.21-37.16,19.12A80.71,80.71,0,0,1,935,959.86ZM808.65,837.23a98.38,98.38,0,0,1,28.81,4.18c27.15,8.33,48.38,31,49.4,52.68.23,5,0,9.77-.23,14.39a130.8,130.8,0,0,0-.06,17.18c.8,10.14,6.11,18.63,15.35,24.57,15.35,9.86,39.54,11.43,60.2,3.9,13.38-4.88,25.38-12.08,37-19,4.42-2.65,9-5.39,13.58-8,13.75-7.69,34.6-17.75,56.73-16.47a149.32,149.32,0,0,1,17.65,2.47c12.34,2.23,24,4.33,34.67,0,10.35-4.23,15.8-12.16,21.57-20.56,3.92-5.7,8-11.59,13.71-16.29,9.23-7.55,23.06-11.27,35.23-9.45,11.63,1.73,22.39,8.49,27.42,17.21,2.63,4.57,3.54,9.13,4.42,13.55,1.19,6,2.32,11.7,7.68,16.84,7.6,7.29,23.51,9.51,38.69,5.4,23-6.24,43.68-22.44,58.15-45.62,18.59-29.78,34.26-67,50.84-106.46,4.94-11.75,10.05-23.91,15.24-35.82,33.31-76.55,82.9-153.72,109.55-195.18,3-4.63,5.64-8.77,7.92-12.36,21.13-33.22-.87-160-10.27-214.11-1.31-7.52-2.43-14-3.18-18.7-3.13-19.7-17.51-45-38.47-67.78a241.9,241.9,0,0,0-95.14-62.83c-39-14.2-82.63-22.22-129.58-23.86-72-2.5-152.87,7.61-240.25,30.06a1244.76,1244.76,0,0,0-216.73,77.93c-28,13.19-54,25.91-63.81,36.55h0c-3.53,3.82-13.53,15.6-15.86,19.41-.72,1.17-2.13,3.15-3.76,5.44-2.63,3.7-5.91,8.31-6.8,10.34-5.46,12.55-3.48,36-1.18,63.08,1.08,12.78,2.2,26,2.78,40C692,470.72,686.66,525,682,572.9l-.37,3.82c-2.48,25.24-8.33,44.41-15.11,66.6-5.56,18.21-11.87,38.85-17,66C641,754,637,813.34,666.15,842.62c15.66,15.75,39.46,20.84,70.75,15.12,6.62-1.21,12.71-4.25,18.6-7.19,2.63-1.31,5.36-2.67,8.12-3.87A114,114,0,0,1,808.65,837.23Z" fill="#dbbaba"/><path d="M929.42,1023.31c-13.35,0-26.17-3-36.12-8.77s-16.23-14-18.24-23.75c-1.18-5.73-1.79-10.95-2.39-16-.53-4.52-1.08-9.2-2-14.11-4-20.53-27.29-41.8-54.15-49.45-23.54-6.71-51.27-5.11-76.09,4.39-2.9,1.11-5.77,2.38-8.55,3.61-6.25,2.77-12.71,5.63-19.69,6.72-36,5.62-63.32-1-81.17-19.62-18.24-19-36.07-61.15-17.49-153.51,6.06-30.12,13.27-52.54,19.64-72.33,8.2-25.49,15.28-47.5,18-78.48,3.79-43.86,8.31-109,3.75-168.55-1.23-16-3.1-31.61-4.75-45.4-3.6-30-6.45-53.75-1.28-65.61.85-2,4.35-6.7,7.44-10.89,1.84-2.5,3.58-4.86,4.27-6,2.27-3.71,14.17-17.53,17.3-20.92h0c8.57-9.29,32-21.16,69.61-38.51A1422.84,1422.84,0,0,1,979.8,163c95.36-24.94,182.78-36.62,259.85-34.75,50.9,1.24,97.95,9.71,139.81,25.15a257,257,0,0,1,104,70.9c25.52,29,37.25,56,39.73,71.54,1.15,7.24,3.87,20.24,7.31,36.71,13.93,66.65,39.86,190.71,21.54,219.51-1.91,3-4.19,6.57-6.8,10.62-24.85,38.75-83,129.51-123.48,216.6-6.28,13.53-12.48,27.29-18.48,40.6-19.18,42.56-37.3,82.77-57.24,114.47-15,23.89-36.59,41-60.72,48.06-13.15,3.87-31,4.26-41.21-3.6-6.15-4.73-8.13-10-10.22-15.59-1.46-3.89-3-7.92-6-11.93-6-7.81-17.21-13.75-28.67-15.14-12.42-1.5-26.22,2-36,9.14-6,4.37-10.49,9.87-14.84,15.18-6.38,7.79-13,15.85-24.17,20-11.45,4.26-24.27,2.18-36.67.16a169.38,169.38,0,0,0-18.09-2.27c-22.2-1.17-43,7.58-58.72,15.32-4.76,2.37-9.52,4.88-14.13,7.31-12.42,6.56-25.26,13.35-39.44,17.93A90.51,90.51,0,0,1,929.42,1023.31ZM786.09,906.14a112.2,112.2,0,0,1,30.68,4.13c27.19,7.75,50.78,29.35,54.86,50.22,1,4.95,1.51,9.64,2,14.18.59,5,1.2,10.22,2.37,15.91,2,9.47,8.09,17.46,17.76,23.09,16.59,9.66,41.31,11.37,63,4.36,14.09-4.56,26.9-11.32,39.28-17.86,4.61-2.43,9.37-5,14.15-7.33,15.78-7.8,36.78-16.6,59.22-15.42a170.13,170.13,0,0,1,18.2,2.29c12.83,2.08,25,4.05,36.16-.11,10.94-4.07,17.16-11.67,23.75-19.71,4.4-5.37,8.94-10.92,15-15.36,10-7.29,24.05-10.86,36.72-9.33,11.72,1.42,23.24,7.51,29.35,15.53,3.14,4.13,4.68,8.22,6.17,12.18,2,5.45,4,10.59,9.89,15.15,8.6,6.62,24.8,8,40.32,3.43,23.89-7,45.25-23.94,60.15-47.63,19.91-31.65,38-71.82,57.18-114.35,6-13.31,12.2-27.08,18.49-40.61,40.46-87.16,98.68-178,123.54-216.72,2.6-4.06,4.88-7.61,6.79-10.62,18.1-28.46-7.77-152.26-21.68-218.77-3.44-16.48-6.17-29.5-7.32-36.76-2.45-15.43-14.11-42.19-39.49-71a256,256,0,0,0-103.55-70.63c-41.77-15.41-88.7-23.85-139.49-25.09-77-1.89-164.31,9.8-259.57,34.71A1421.83,1421.83,0,0,0,747.84,247c-37.48,17.3-60.83,29.1-69.29,38.27-3.11,3.37-14.94,17.11-17.18,20.77-.71,1.16-2.38,3.43-4.32,6.06-2.91,3.94-6.52,8.85-7.33,10.7-5.05,11.62-2.22,35.22,1.36,65.1,1.66,13.8,3.53,29.44,4.76,45.44,4.57,59.57,0,124.82-3.75,168.71-2.69,31.09-9.78,53.15-18,78.7-6.36,19.76-13.56,42.16-19.61,72.22C604.27,803.76,599,871.43,631.71,905.63,649.32,924,676.33,930.53,712,925c6.85-1.07,13-3.78,19.44-6.64,2.79-1.24,5.68-2.51,8.6-3.63A129.77,129.77,0,0,1,786.09,906.14Z" fill="#dbbaba"/><path d="M923.6,1086.75a93.78,93.78,0,0,1-25.51-3.42c-17.53-5-29.61-14.74-34-27.46-1.74-5-3.11-9.59-4.44-14-1.47-4.89-2.86-9.5-4.69-14.62-6.18-17.21-28.65-38.93-59.61-47.14-24.34-6.45-53.15-5.15-79,3.57-3.06,1-6.1,2.22-9,3.37-6.55,2.56-13.32,5.2-20.51,6.16-40.45,5.39-71-2.69-90.78-24C559.39,929.75,566,853.52,578,796.52c7-33.13,15.13-57.42,22.31-78.85C610,689,618.28,664.2,621.11,627.41c5-64.74,4.69-128.79-.8-180.35-1.94-18.19-4.57-35.76-6.89-51.26-4.71-31.47-8.43-56.33-3.67-67.28.79-1.81,4.63-6.87,8-11.35,2.12-2.79,4.12-5.43,4.78-6.51,2.15-3.51,15.62-19,18.62-22.28,8.14-8.82,34.77-21.94,75.09-40.24,77-34.94,165-66.28,247.82-88.27,103.24-27.41,197.17-40.65,279.17-39.38,54.74.85,105.12,9.73,149.74,26.39a271.53,271.53,0,0,1,112.36,78.72c26.23,31,38.34,59.67,40.74,74.77,1.29,8.16,5.74,26.5,11.38,49.72,18.46,76.13,49.36,203.54,33,229.22-1.53,2.41-3.39,5.31-5.53,8.65-24.54,38.36-89.73,140.25-137.63,238.39-7.32,15-14.55,30.2-21.55,44.91-21.81,45.84-42.41,89.14-63.75,122.84-15.44,24.38-37.71,42.16-62.7,50.06-15.87,5-33.05,4.38-42.77-1.56-6.75-4.12-9.55-8.85-12.53-13.86a50.55,50.55,0,0,0-7.69-10.57c-5.62-5.68-16.62-12.22-30.65-13.56-12.76-1.21-27.16,2.25-37.56,9-6.32,4.13-11.31,9.29-16.13,14.29-7.17,7.44-14.59,15.13-26.36,19.11-12,4-25.26,2.11-38.12.24-6.12-.89-12.46-1.81-18.63-2.1-22.77-1.08-44.7,7.08-61.25,14.3-4.92,2.16-9.86,4.45-14.63,6.67-13.21,6.14-26.88,12.49-41.78,16.75A101.25,101.25,0,0,1,923.6,1086.75ZM762.86,975.06a128.31,128.31,0,0,1,32.74,4.09A103.4,103.4,0,0,1,834.51,999c10.4,8.55,18,18.46,21.39,27.9,1.84,5.15,3.23,9.77,4.71,14.67,1.32,4.39,2.69,8.92,4.43,13.95,7.59,22,44.75,38.21,85.93,26.43,14.83-4.24,28.46-10.57,41.64-16.69,4.78-2.22,9.72-4.51,14.65-6.68,16.66-7.26,38.74-15.47,61.7-14.38,6.22.29,12.58,1.21,18.73,2.11,13.33,1.94,25.92,3.77,37.66-.2,11.54-3.9,18.55-11.16,26-18.86,4.86-5,9.88-10.25,16.3-14.43,10.59-6.91,25.22-10.44,38.2-9.2,14.3,1.36,25.53,8,31.27,13.85a51.38,51.38,0,0,1,7.84,10.76c2.91,4.9,5.66,9.52,12.19,13.52,9.48,5.8,26.34,6.39,41.95,1.46,24.77-7.82,46.85-25.45,62.16-49.64,21.3-33.65,41.89-76.92,63.69-122.73,7-14.71,14.24-29.92,21.56-44.92,47.93-98.19,113.14-200.12,137.69-238.49l5.53-8.65c16.1-25.32-14.73-152.48-33.15-228.45-5.64-23.25-10.09-41.61-11.39-49.8-2.38-15-14.41-43.41-40.51-74.28a270.54,270.54,0,0,0-111.95-78.43c-44.51-16.62-94.77-25.48-149.4-26.33-81.89-1.27-175.74,12-278.9,39.34-82.76,22-170.72,53.3-247.67,88.21-40.21,18.25-66.75,31.3-74.77,40l-.37-.34.37.34c-3,3.23-16.38,18.66-18.5,22.12-.69,1.12-2.61,3.66-4.84,6.59-3.19,4.21-7.17,9.44-7.91,11.14-4.65,10.69-.95,35.42,3.74,66.74,2.32,15.51,5,33.1,6.9,51.3,5.5,51.62,5.79,115.74.8,180.54-2.84,36.91-11.17,61.74-20.81,90.5-7.18,21.4-15.32,45.66-22.28,78.73-12,56.77-18.6,132.66,17.7,171.78,19.56,21.09,49.82,29.06,89.92,23.72,7.08-.94,13.49-3.45,20.28-6.1,3-1.15,6-2.34,9.09-3.38A148,148,0,0,1,762.86,975.06Z" fill="#dbbaba"/><path d="M917.66,1150.22a108.6,108.6,0,0,1-27.55-3.44C872,1142,858.8,1132.83,852.85,1121l-2.81-5.61c-3.74-7.5-7-14-11-21.5-8.66-16-32.72-36.84-65.09-44.83-25.53-6.29-54.64-5.32-82,2.74-3.23,1-6.44,2.05-9.54,3.12-6.84,2.35-13.91,4.77-21.31,5.61a198.68,198.68,0,0,1-22.36,1.32c-33.92,0-60.13-10-78.1-29.92-40-44.35-32.07-128.7-18.33-191.65,7.9-36.21,17-62.42,25-85.55,11-31.81,20.59-59.28,23.52-101.84,4.36-63.44,2.41-133.48-5.36-192.16-2.72-20.56-6.16-40.18-9.19-57.5-5.73-32.69-10.26-58.52-5.88-68.57.73-1.67,4.93-7.07,8.63-11.83,2.39-3.07,4.65-6,5.28-7,2.06-3.37,17.41-20.9,19.94-23.63h0c7.76-8.42,36.59-22.3,80.58-42,82-36.66,175.51-69.85,263.27-93.44,108.65-29.21,207.08-44,292.67-44l5.83,0c58.57.46,112.29,9.76,159.66,27.63C1517,182.13,1564.15,275.6,1568.81,304.93c1.33,8.41,7.58,31.4,15.5,60.52,22.15,81.51,59.22,217.94,44.46,241.14l-4.12,6.46c-23.79,37.26-96.18,150.66-151.92,260.41-8.27,16.28-16.46,32.75-24.38,48.69-24.52,49.32-47.68,95.9-70.5,131.73-15.83,24.86-38.81,43.35-64.69,52.06-16.17,5.44-33.57,5.62-44.33.48-7.39-3.54-11.06-7.74-15-12.19a65.37,65.37,0,0,0-9.24-9.15c-8.45-6.64-20.65-11.11-32.64-12a70.46,70.46,0,0,0-39.12,8.94c-6.65,3.89-12.1,8.72-17.36,13.4-8,7.08-16.24,14.41-28.6,18.21s-26.27,2-39.6.32c-6.29-.82-12.79-1.66-19.15-1.92-23.21-1-45.26,6.16-63.79,13.27-5.06,2-10.14,4-15.06,6-14,5.72-28.55,11.63-44.2,15.56A113.61,113.61,0,0,1,917.66,1150.22ZM739,1043.92a147.33,147.33,0,0,1,35.18,4.13A120,120,0,0,1,815.09,1067c11.09,8,19.9,17.36,24.8,26.42,4.07,7.54,7.3,14,11,21.53l2.81,5.61c5.82,11.61,18.82,20.59,36.62,25.29a112.62,112.62,0,0,0,54.52.12c15.59-3.91,30.07-9.81,44.07-15.52,4.92-2,10-4.08,15.07-6,17.53-6.73,40.65-14.33,64.19-13.33,6.39.27,12.92,1.11,19.23,1.93,13.83,1.79,26.9,3.49,39.18-.28s20-10.66,28.23-18c5.3-4.71,10.79-9.57,17.52-13.51a71.49,71.49,0,0,1,39.69-9.08c12.18.87,24.58,5.42,33.18,12.18a66.12,66.12,0,0,1,9.37,9.28c3.82,4.37,7.43,8.5,14.63,11.94,10.54,5,27.65,4.84,43.58-.52,25.66-8.63,48.45-27,64.16-51.65,22.79-35.78,45.93-82.34,70.44-131.64,7.92-15.93,16.11-32.41,24.38-48.69,55.77-109.79,128.18-223.22,152-260.49l4.12-6.46c14.52-22.83-22.48-159-44.58-240.35-7.92-29.15-14.17-52.17-15.52-60.63-4.63-29.17-51.61-122.17-161.88-163.77-47.26-17.83-100.86-27.1-159.31-27.56-86.86-.69-187.19,14.1-298.23,44-87.72,23.58-181.16,56.75-263.12,93.39-42.66,19.07-72.63,33.47-80.25,41.73-3,3.23-17.91,20.36-19.82,23.48-.66,1.07-2.83,3.86-5.34,7.09-3.49,4.48-7.83,10.06-8.5,11.62-4.25,9.78.25,35.47,6,68,3,17.33,6.48,37,9.2,57.54,7.77,58.75,9.72,128.86,5.36,192.36-2.93,42.7-12.5,70.23-23.57,102.1-8,23.1-17.12,49.29-25,85.44-13.69,62.72-21.67,146.73,18.1,190.77,21.51,23.82,55,33.33,99.6,28.28,7.3-.83,14-3.13,21.1-5.56,3.11-1.07,6.33-2.17,9.58-3.13A168.13,168.13,0,0,1,739,1043.92Z" fill="#dbbaba"/><path d="M911.7,1213.92a125.69,125.69,0,0,1-29.79-3.52c-18.64-4.57-33-13.16-40.44-24.18-5.36-7.95-10-14.2-15-20.83l-3.57-4.8c-11.76-15.8-38.14-35.06-70.57-42.5-26.37-6-56.52-5.37-84.91,1.92-3.4.87-6.79,1.89-10.06,2.86-7.45,2.23-14.49,4.34-22.1,5.07-49.44,4.74-86.52-6.48-110.19-33.33C481.65,1045.34,491,953,506.42,884.13c8.84-39.33,18.92-67.52,27.82-92.38,12.48-34.87,23.25-65,26.23-113.31,3.85-62.62.15-138.87-9.91-204-3.57-23.11-7.88-44.91-11.68-64.15C532,375.32,527,350,531,340.87c.67-1.54,5.23-7.28,9.25-12.34,2.66-3.35,5.17-6.51,5.76-7.47,1.9-3.1,18.68-22.19,21.26-25l.37.34-.37-.34c7.39-8,39.75-23.26,86.07-43.7A2034.84,2034.84,0,0,1,932,153.74c118.6-32.24,225.21-48.58,316.89-48.58h.94c62.39.08,119.45,9.79,169.58,28.86a301.28,301.28,0,0,1,129.18,94.38c29.55,37.34,40.89,69.45,42.76,81.22,1.32,8.31,9.42,35.58,19.67,70.11,27.57,92.87,69.24,233.21,55.84,254.28l-2.56,4c-67.85,106.51-123.83,201.6-166.36,282.66-9.12,17.37-18.16,34.92-26.91,51.89-27.34,53-53.16,103.1-77.54,141.19-16.22,25.33-39.9,44.53-66.67,54.06-16.22,5.77-34.23,6.75-45.89,2.5-8.14-3-12.74-6.67-17.62-10.6a94.53,94.53,0,0,0-10.54-7.65,75.19,75.19,0,0,0-34.62-10.37,82.67,82.67,0,0,0-40.67,8.84c-7,3.65-12.85,8.15-18.54,12.5-8.81,6.73-17.92,13.69-30.9,17.3s-27.3,2-41.11.39c-6.45-.74-13.12-1.51-19.64-1.75-23.73-.88-46.84,5.69-66.32,12.24-5.16,1.75-10.35,3.6-15.38,5.39-14.89,5.3-30.28,10.78-46.73,14.38A127.48,127.48,0,0,1,911.7,1213.92ZM714.84,1113a169.43,169.43,0,0,1,37.73,4.11c32.68,7.5,59.28,26.94,71.15,42.88l3.57,4.79c5,6.63,9.63,12.9,15,20.86,14.75,21.86,58,32.8,96.35,24.39,16.38-3.59,31.75-9.06,46.61-14.34,5-1.79,10.22-3.64,15.39-5.39,19.56-6.58,42.79-13.19,66.67-12.29,6.56.24,13.25,1,19.71,1.75,14.35,1.65,27.9,3.21,40.73-.36s21.42-10.15,30.56-17.14c5.73-4.38,11.66-8.91,18.69-12.59a83.66,83.66,0,0,1,41.18-9,76.23,76.23,0,0,1,35.09,10.51,95.28,95.28,0,0,1,10.65,7.73c4.81,3.87,9.35,7.53,17.33,10.44,11.46,4.17,29.2,3.19,45.21-2.51,26.57-9.45,50.07-28.51,66.17-53.66,24.36-38.05,50.17-88.11,77.49-141.11,8.75-17,17.8-34.52,26.92-51.9,42.55-81.08,98.53-176.2,166.4-282.73l2.56-4c13.15-20.68-30.11-166.4-56-253.46-10.26-34.56-18.37-61.86-19.7-70.24-2.16-13.57-15.27-46.28-42.56-80.76A300.28,300.28,0,0,0,1419.05,135c-50-19-107-28.72-169.22-28.8h-.94c-91.59,0-198.1,16.33-316.62,48.54a2033.78,2033.78,0,0,0-278.57,98.59c-40,17.64-78,35.11-85.74,43.46-2.5,2.71-19.31,21.86-21.14,24.83-.62,1-3,4.05-5.83,7.57-3.79,4.76-8.49,10.69-9.12,12.12-3.86,8.87,1.37,35.34,8,68.85,3.8,19.25,8.11,41.06,11.68,64.19,10.07,65.17,13.78,141.5,9.92,204.18-3,48.47-13.78,78.64-26.28,113.58-8.89,24.84-19,53-27.78,92.27-15.41,68.6-24.72,160.65,18.44,209.6,20,22.63,49.58,34,88.22,34q10.15,0,21.13-1.05c7.52-.72,14.51-2.81,21.91-5,3.28-1,6.67-2,10.1-2.87A192.94,192.94,0,0,1,714.84,1113Z" fill="#dbbaba"/><path d="M906.15,1277.27c-31.49,0-62.05-9.9-76.16-26.1-5.57-6.4-10.56-11.37-15.83-16.64-2.39-2.39-4.87-4.86-7.42-7.49-14.21-14.61-41.65-32.83-76.06-40.17-27.21-5.8-58.41-5.42-87.85,1.09-3.58.79-7.15,1.71-10.59,2.61-7.74,2-15.06,3.9-22.87,4.52-54,4.31-94.36-8.54-120-38.2-46.77-54.17-36.12-154.52-19-229.17,9.77-42.5,20.85-72.68,30.63-99.31C515,790.53,527,757.81,530,703.74,533.44,640.68,528,560,515.49,488c-4.5-25.87-9.73-50-14.35-71.25-7.76-35.75-13.37-61.59-9.76-69.87.58-1.32,4.46-6.16,9.87-12.86,2.92-3.61,5.69-7,6.23-7.92,1.75-2.86,20.59-24.19,22.58-26.34l.37.34-.37-.34c6-6.46,33.34-20,91.55-45.43A2250.43,2250.43,0,0,1,915.77,150.44c126.89-34.82,240.33-52.7,337.17-53.16,66.21-.3,126.6,9.82,179.49,30.1A316.44,316.44,0,0,1,1570,229.59c28.07,36.45,41.56,70.47,43.78,84.44,1.27,8,11.25,39.33,23.88,79,31.59,99.16,79.34,249,67.17,268.14l-.86,1.35C1634.55,771.65,1570.29,880,1523,967.64c-9.83,18.23-19.6,36.61-29.05,54.39-30.3,57-58.92,110.85-85,151.37-16.59,25.79-41,45.7-68.66,56.06-16.52,6.18-34.7,7.92-47.45,4.53-9.06-2.41-14.47-5.51-20.74-9.09-3.41-2-6.93-4-11.39-6.07a94.16,94.16,0,0,0-36.61-8.76,96,96,0,0,0-42.22,8.73,156.27,156.27,0,0,0-19.65,11.61c-9.66,6.38-19.65,13-33.27,16.41s-28.35,1.92-42.65.47c-6.59-.67-13.42-1.36-20.09-1.57-24.26-.8-48.41,5.22-68.84,11.21-5.22,1.54-10.48,3.17-15.56,4.74-15.79,4.88-32.11,9.93-49.39,13.2A142.26,142.26,0,0,1,906.15,1277.27Zm-215.9-95.49a195.77,195.77,0,0,1,40.62,4.11c34.63,7.39,62.26,25.74,76.57,40.45,2.55,2.63,5,5.1,7.41,7.48,5.29,5.28,10.29,10.27,15.88,16.69,17.85,20.5,62.46,30.76,101.57,23.36,17.22-3.26,33.52-8.3,49.28-13.17,5.09-1.57,10.35-3.2,15.58-4.75,20.51-6,44.77-12.06,69.16-11.25,6.71.22,13.55.91,20.16,1.58,14.87,1.5,28.92,2.93,42.3-.45s22.93-9.65,33-16.27a157.1,157.1,0,0,1,19.78-11.68,97,97,0,0,1,42.67-8.83,95.18,95.18,0,0,1,37,8.86c4.5,2.12,8,4.15,11.46,6.11,6.2,3.55,11.56,6.62,20.5,9,12.56,3.34,30.51,1.62,46.84-4.5,27.48-10.29,51.69-30.05,68.17-55.66,26-40.48,54.65-94.31,84.94-151.29,9.45-17.78,19.22-36.17,29.05-54.4,47.26-87.64,111.53-196,181-305.21l.86-1.35c11.92-18.73-37.66-174.33-67.28-267.3-12.65-39.69-22.63-71-23.92-79.12-2.2-13.87-15.63-47.69-43.58-84a315.45,315.45,0,0,0-137.14-101.89c-52.78-20.24-113-30.32-179.13-30-96.75.45-210.1,18.33-336.9,53.12A2249.18,2249.18,0,0,0,622,255.2c-41,17.86-83.85,37.2-91.22,45.19-2.57,2.79-20.79,23.48-22.46,26.19-.58.95-3.23,4.23-6.31,8-4.08,5.05-9.17,11.34-9.73,12.63-3.48,8,2.1,33.69,9.82,69.26,4.62,21.28,9.86,45.4,14.36,71.29,12.55,72.13,18,152.88,14.47,216-3,54.22-15,87-29,125-9.76,26.6-20.83,56.75-30.59,99.19-17.12,74.42-27.76,174.44,18.74,228.29,25.39,29.4,65.47,42.14,119.13,37.85,7.73-.62,15-2.5,22.7-4.5,3.45-.9,7-1.82,10.63-2.62A222.18,222.18,0,0,1,690.25,1181.78Z" fill="#dbbaba"/><path d="M900.33,1340.84c-32.71,0-65.14-9.27-81.9-24.58-6.34-5.8-12.09-10.24-18.18-14.95-3.17-2.45-6.44-5-9.79-7.7-22.08-17.94-52.57-32.08-81.55-37.83-36-7.13-69.22-3.79-90.78.26-3.77.71-7.52,1.54-11.15,2.35-8,1.78-15.61,3.46-23.62,4-58.58,3.83-102.25-10.7-129.78-43.2-22.74-26.84-34.71-66.13-35.58-116.79-.65-37.81,4.86-81.86,16.37-130.93,10.71-45.69,22.8-77.89,33.46-106.3,15.34-40.88,28.59-76.18,31.55-136,3.16-63.72-3.94-148.8-19-227.59-5.52-28.85-11.75-55.41-17.24-78.84-8.49-36.21-14.63-62.38-11.4-69.8.53-1.21,4.68-6.31,10.5-13.39,3.19-3.88,6.2-7.55,6.71-8.37,1.56-2.54,21.63-25.25,23.89-27.7,5.61-6.09,35.54-20.63,97-47.16,56.48-24.36,171.8-70.93,309.59-109.05C1034.23,110,1154.17,90.56,1256,89.54c70-.7,133.75,9.85,189.41,31.34,140.28,54.17,187.33,176,190.78,197.7,1.2,7.58,13.08,42.78,28.13,87.35,35.64,105.59,89.5,265.16,78.48,282.48-18.46,29-114.62,181.21-194.69,326.31-10.37,18.79-20.7,37.73-30.69,56-33.45,61.32-65,119.25-92.92,162.39a150.2,150.2,0,0,1-70.64,58.06c-16.57,6.49-35.35,9-49,6.54-10.29-1.85-17-4.55-24.68-7.67-3.5-1.41-7.11-2.88-11.41-4.41a120.21,120.21,0,0,0-38.59-7.15,114.16,114.16,0,0,0-43.77,8.63,191.33,191.33,0,0,0-20.67,10.71c-10.54,6-21.44,12.27-35.72,15.51-14.12,3.21-29.43,1.86-44.23.55-6.73-.59-13.69-1.21-20.51-1.4-24.69-.71-48.89,4.47-71.37,10.18-5.22,1.34-10.49,2.74-15.59,4.1-16.74,4.46-34,9.08-52.21,12A162.06,162.06,0,0,1,900.33,1340.84Zm-235.07-90.22a225.78,225.78,0,0,1,43.85,4.19c29.14,5.78,59.79,20,82,38,3.34,2.72,6.61,5.24,9.77,7.69,6.1,4.72,11.87,9.17,18.24,15,21,19.17,66.89,28.77,106.78,22.33,18.12-2.93,35.4-7.53,52.11-12,5.1-1.36,10.37-2.77,15.6-4.11,22.55-5.72,46.84-10.92,71.65-10.21,6.85.19,13.82.81,20.57,1.4,15.41,1.36,30,2.64,43.92-.53,14.14-3.21,24.49-9.14,35.45-15.41a191.88,191.88,0,0,1,20.78-10.76,114.87,114.87,0,0,1,44.16-8.71,121.19,121.19,0,0,1,38.92,7.21c4.32,1.54,7.95,3,11.45,4.43,7.67,3.1,14.29,5.78,24.48,7.61,13.49,2.42,32.06-.06,48.47-6.49a149.19,149.19,0,0,0,70.17-57.67c27.86-43.11,59.44-101,92.88-162.32,10-18.32,20.32-37.25,30.69-56.05,80.08-145.13,176.25-297.33,194.72-326.37,10.76-16.92-45.17-182.62-78.59-281.63-15.06-44.61-27-79.85-28.17-87.51-3.44-21.64-50.31-142.93-190.15-196.92-55.54-21.45-119.13-32-189-31.27-101.7,1-221.56,20.42-356.25,57.69-137.73,38.11-253,84.66-309.46,109-60.53,26.11-91.26,41-96.7,46.92l-.37-.34.37.34c-2.25,2.44-22.24,25-23.78,27.54-.54.88-3.43,4.4-6.79,8.48-4.38,5.34-9.84,12-10.35,13.15-3.1,7.12,3,33.15,11.45,69.18,5.5,23.44,11.73,50,17.25,78.88,15.08,78.87,22.19,164,19,227.83-3,60-16.25,95.33-31.62,136.28C458.1,893.89,446,926.06,435.33,971.69c-11.49,49-17,92.95-16.34,130.68.86,50.42,12.75,89.5,35.34,116.16,27.32,32.25,70.71,46.66,129,42.85,7.94-.52,15.48-2.19,23.47-4,3.63-.81,7.39-1.64,11.18-2.35A258.06,258.06,0,0,1,665.25,1250.61Z" fill="#dbbaba"/><path d="M894.67,1404.43c-34,0-68.33-8.67-87.85-23.1-7.23-5.34-14.13-9.59-20.8-13.69-3.85-2.37-7.84-4.82-11.88-7.47-12.4-8.13-45.71-27.86-87-35.47-37.08-6.83-71.43-4.08-93.72-.57-4,.63-7.92,1.37-11.74,2.08-8.3,1.56-16.13,3-24.33,3.45-63.19,3.31-110.17-13-139.63-48.33-24.27-29.14-36.92-71.5-37.58-125.92-.5-40.46,5.61-87.64,18.15-140.22C409.9,966.3,423,932.06,434.55,901.85c16.78-43.85,31.26-81.72,34.18-147.24,2.88-64.54-5.93-154-23.56-239.4-6.63-32.11-14.24-62.54-20.36-87-9.43-37.7-15.66-62.6-12.79-69.18.48-1.1,4.92-6.47,11.13-13.93,3.45-4.14,6.71-8.06,7.17-8.8,1.44-2.35,23.35-27,25.21-29.05h0c5.21-5.65,38.75-21.65,102.52-48.89,59.57-25.45,181-74.13,325-114.28,142.65-39.76,269.11-60.72,375.84-62.29,73.87-1.08,140.91,9.88,199.33,32.58,147.09,57.15,196.55,185.79,200.2,208.75,1.12,7.05,14.92,46,32.4,95.4,39.7,112.12,99.68,281.55,89.76,297.15-1.11,1.75-112.16,176.59-207.57,346.13-10.7,19-21.38,38.16-31.71,56.68-36.84,66.05-71.64,128.44-101.48,174.43a156.85,156.85,0,0,1-72.63,60.06c-16.88,6.9-35.79,10.09-50.58,8.56-12.06-1.25-20-3.48-30.17-6.3-3.1-.87-6.31-1.76-9.9-2.7-14.71-3.85-28-5.65-40.57-5.53a135,135,0,0,0-45.31,8.52c-7.71,2.92-14.76,6.42-21.58,9.8-11.46,5.68-23.31,11.56-38.3,14.63-14.69,3-30.55,1.8-45.88.63-6.84-.52-13.92-1.06-20.86-1.23-25.16-.63-50.38,4-73.9,9.15-5.15,1.13-10.28,2.3-15.4,3.47-17.76,4-36.12,8.23-55.25,10.82A185.66,185.66,0,0,1,894.67,1404.43Zm-255.05-84.94a263.82,263.82,0,0,1,47.67,4.22c41.51,7.64,75,27.46,87.41,35.62,4,2.65,8,5.09,11.85,7.46,6.69,4.12,13.61,8.37,20.87,13.74,24.15,17.86,71.25,26.81,112,21.29,19.08-2.59,37.42-6.77,55.16-10.81,5.12-1.17,10.25-2.33,15.4-3.47,23.58-5.13,48.89-9.79,74.14-9.17,7,.17,14.06.71,20.91,1.23,16,1.21,31,2.36,45.6-.62,14.86-3,26.13-8.63,38.05-14.54,6.84-3.39,13.91-6.9,21.67-9.84A136,136,0,0,1,1236,1346c12.68-.11,26,1.69,40.83,5.56,3.6.94,6.81,1.84,9.91,2.7,10.07,2.81,18,5,30,6.27,14.64,1.52,33.36-1.65,50.1-8.49a155.85,155.85,0,0,0,72.17-59.68c29.82-46,64.61-108.33,101.45-174.37,10.33-18.52,21-37.67,31.71-56.68,95.42-169.56,206.48-344.43,207.59-346.18,9.66-15.19-52.64-191.15-89.86-296.28-17.49-49.41-31.31-88.44-32.45-95.58-3.63-22.87-52.93-151-199.57-208-58.3-22.65-125.22-33.59-199-32.51-69.81,1-326.65,16.78-700.5,176.49-62.75,26.81-97.13,43.17-102.18,48.65h0c-1.86,2-23.73,26.67-25.1,28.9-.5.81-3.63,4.57-7.25,8.92-4.69,5.63-10.53,12.64-11,13.69-2.73,6.27,3.8,32.39,12.85,68.54,6.12,24.46,13.73,54.9,20.37,87,17.65,85.44,26.46,175,23.58,239.65-2.93,65.68-17.44,103.62-34.25,147.55-11.54,30.18-24.63,64.38-36.28,113.21-12.52,52.5-18.62,99.6-18.12,140,.67,54.18,13.23,96.33,37.35,125.29,29.25,35.12,76,51.26,138.81,48,8.13-.43,15.94-1.89,24.2-3.44,3.83-.72,7.78-1.46,11.77-2.09A300.38,300.38,0,0,1,639.61,1319.49Z" fill="#dbbaba"/><path d="M889.11,1468c-35.32,0-71.65-8.08-94.1-21.65-8.14-4.92-16-8.82-23.51-12.58-4.51-2.25-9.18-4.57-13.88-7.1-21.6-11.58-55.18-26.73-92.52-33.11-38.22-6.53-73.66-4.37-96.65-1.39-12.14,1.57-24.35,3.12-37.34,4.74-64.81,8.08-113.74-5.81-145.42-41.3-27.6-30.92-42.17-78-43.31-140-1.06-58.32,10-117.4,19.54-156.68,12.61-52.12,26.73-88.4,39.19-120.41,18.21-46.8,33.94-87.22,36.79-158.46,2.62-65.49-7.89-159.4-28.12-251.21-7.86-35.67-16.66-69-23.74-95.74-9.9-37.45-16.44-62.19-13.94-67.95.43-1,5.15-6.63,11.77-14.48,3.71-4.4,7.22-8.56,7.63-9.24,1.34-2.18,25.34-29.11,26.53-30.41h0c6.11-6.63,62.11-31.18,108-50.62,62.7-26.55,190.31-77.38,340.46-119.51C1017,98.65,1150,76.16,1261.7,74c77.66-1.47,148.06,9.91,209.25,33.81a362.64,362.64,0,0,1,162.78,125.72c30.61,42.47,45,82.39,46.84,94.08,1,6.47,16.77,49.17,36.7,103.24,43.76,118.71,109.88,298.1,101,312-21.79,34.26-129.5,207.07-220.45,365.94-10.74,18.76-21.48,37.66-31.88,55.93-40.57,71.33-78.88,138.71-110.89,187.85a165.76,165.76,0,0,1-74.62,62.06c-17,7.19-36.43,11.13-52.15,10.57-14.72-.54-24.7-2.37-38.5-4.91l-5.53-1c-12-2.18-26.49-4.35-42.55-3.91a164,164,0,0,0-46.86,8.42c-7.88,2.67-15.22,5.83-22.33,8.88-12.42,5.34-25.27,10.86-41,13.75-15.29,2.8-31.71,1.74-47.59.72-6.93-.45-14.1-.91-21.15-1.06-26.83-.57-53.53,3.89-76.43,8.11q-7.48,1.39-14.92,2.84c-18.87,3.63-38.39,7.37-58.57,9.63A215,215,0,0,1,889.11,1468ZM613,1388.33a310.93,310.93,0,0,1,52.21,4.28c37.48,6.41,71.17,21.6,92.83,33.22,4.69,2.52,9.35,4.84,13.86,7.09,7.58,3.77,15.41,7.68,23.58,12.62,27.37,16.56,75.57,24.88,117.21,20.23,20.15-2.25,39.64-6,58.5-9.61q7.45-1.43,14.92-2.84c23-4.23,49.7-8.7,76.63-8.13,7.07.15,14.25.61,21.19,1.06,16.55,1.07,32.18,2.08,47.35-.71,15.64-2.87,28.44-8.37,40.81-13.69,7.12-3.06,14.49-6.23,22.4-8.91a165,165,0,0,1,47.15-8.47c16.15-.45,30.67,1.73,42.75,3.92l5.53,1c13.76,2.53,23.71,4.36,38.36,4.89,15.55.59,34.9-3.35,51.72-10.49a164.77,164.77,0,0,0,74.17-61.69c32-49.11,70.3-116.48,110.86-187.8,10.39-18.27,21.14-37.17,31.88-55.93,91-158.89,198.68-331.72,220.47-366,8.6-13.52-60.08-199.84-101.11-311.15-20.73-56.23-35.71-96.86-36.75-103.43-1.84-11.62-16.16-51.33-46.67-93.65a361.65,361.65,0,0,0-162.33-125.38C1409.52,84.93,1339.23,73.58,1261.72,75c-111.61,2.11-244.48,24.59-394.94,66.8C716.68,184,589.12,234.78,526.44,261.32c-64.75,27.42-103,45.31-107.66,50.38h0c-2.15,2.33-25.22,28.3-26.42,30.25-.43.7-3.21,4-7.72,9.36-4.73,5.61-11.21,13.29-11.61,14.23-2.37,5.44,4.49,31.38,14,67.29,7.08,26.77,15.89,60.09,23.75,95.78C431,620.5,441.53,714.51,438.9,780.08,436,851.48,420.29,892,402,938.86c-12.45,32-26.55,68.23-39.15,120.29-9.49,39.23-20.58,98.21-19.52,156.43,1.13,61.75,15.61,108.65,43.05,139.39,31.45,35.23,80.08,49,144.55,41,13-1.62,25.2-3.17,37.33-4.74A351.75,351.75,0,0,1,613,1388.33Z" fill="#dbbaba"/><path d="M884.14,1531.69c-36.78,0-75.2-7.5-100.78-20.24-9.05-4.51-17.78-8.07-26.22-11.52-5.17-2.11-10.52-4.3-15.88-6.68-36-15.95-68.09-26-98-30.75-31.18-4.94-65.62-5.71-99.58-2.22l-18.62,1.9-20,2c-69.69,7.18-122.07-8.74-155.68-47.32-29-33.3-44.14-83.37-45-148.83-.79-61.21,11.21-123.74,21.42-165.42,13.56-55.35,28.71-93.69,42.08-127.52,20.47-51.8,36.63-92.71,39.39-169.65,2.39-66.54-9.83-164.86-32.67-263-9.22-39.61-19.31-76-27.41-105.2-10.2-36.76-16.94-61.05-14.78-66,.39-.89,5.39-6.79,12.41-15,4-4.66,7.72-9.06,8.09-9.66,1.18-1.93,26.46-30.26,27.85-31.77,4.48-4.86,45.85-23.94,113.49-52.35,66.16-27.78,200.37-81,355.89-124.92,158.51-44.81,298-68.77,414.54-71.21,81.12-2,154.85,9.8,219.17,35a380.85,380.85,0,0,1,104.36,61.33A376.87,376.87,0,0,1,1655,234.92c34.36,48.53,46.66,89.7,47.87,97.29.93,5.83,18.61,52.19,41,110.88,50.69,132.85,120.1,314.79,112.26,327.12-13.95,21.93-130,208-233.33,385.76-10.43,18-20.79,35.87-31,53.55-44.7,77.28-86.92,150.27-121.33,202.91-18.25,27.91-44.74,50.06-76.61,64.07-17.29,7.59-36.87,12.18-53.72,12.58-17.49.41-29.8-.8-48-2.84-10.81-1.21-27.13-3-44.52-2.28a202.55,202.55,0,0,0-48.4,8.31c-8,2.42-15.54,5.24-22.86,8-13.46,5-27.38,10.2-44,12.88-15.91,2.63-32.92,1.71-49.37.82-7-.38-14.25-.77-21.37-.9-27.22-.48-53.93,3.23-79,7.08q-7,1.09-14,2.21c-20.13,3.21-40.94,6.52-62.33,8.42C899.08,1531.37,891.64,1531.69,884.14,1531.69Zm-298.57-74.55a371.63,371.63,0,0,1,57.84,4.38c30,4.76,62.14,14.84,98.25,30.82,5.35,2.37,10.69,4.55,15.86,6.67,8.46,3.46,17.21,7,26.29,11.55,30.65,15.25,79.85,23,122.42,19.18,21.35-1.9,42.15-5.21,62.26-8.42q7-1.11,14-2.22c25.07-3.85,51.83-7.57,79.12-7.09,7.14.12,14.39.52,21.41.9,16.4.89,33.35,1.81,49.15-.8,16.5-2.67,30.38-7.83,43.79-12.83,7.33-2.73,14.91-5.56,22.91-8a203.62,203.62,0,0,1,48.65-8.35c17.46-.77,33.84,1.07,44.68,2.29,18.16,2,30.44,3.25,47.87,2.84,16.73-.4,36.18-4.95,53.35-12.49,31.69-13.92,58-36,76.17-63.7,34.4-52.62,76.61-125.6,121.3-202.86,10.23-17.68,20.59-35.59,31-53.55,103.31-177.8,219.4-363.86,233.35-385.79,7.57-11.9-67.5-208.66-112.35-326.22-23.29-61-40.12-105.15-41.06-111.08-1.2-7.54-13.45-48.5-47.7-96.87a375.88,375.88,0,0,0-66.64-72,379.86,379.86,0,0,0-104.08-61.17c-64.19-25.2-137.8-37-218.78-35-116.47,2.44-255.86,26.39-414.29,71.17-155.48,44-289.64,97.11-355.78,124.88-66.52,27.93-108.81,47.41-113.14,52.1l-.37-.34.37.34c-1.51,1.64-26.63,29.8-27.74,31.61-.39.63-3.36,4.13-8.18,9.78-5,5.89-11.89,14-12.26,14.78-2,4.63,5,30.1,14.83,65.34,8.11,29.23,18.21,65.62,27.43,105.24,22.86,98.24,35.08,196.67,32.69,263.29-2.76,77.11-19,118.1-39.46,170-13.35,33.8-28.49,72.11-42,127.39-10.2,41.62-22.18,104.07-21.39,165.17.84,65.21,15.9,115.07,44.74,148.19,28.18,32.35,69.69,48.65,123.66,48.65a304.45,304.45,0,0,0,31.16-1.67l20-2,18.62-1.9A411.86,411.86,0,0,1,585.57,1457.13Z" fill="#dbbaba"/><path d="M879.75,1595.33c-38.38,0-79.06-6.94-108.06-18.85-10-4.09-19.59-7.34-28.92-10.49-5.84-2-11.88-4-17.91-6.23-27.88-10.23-64.84-22.7-103.48-28.37-32.15-4.72-67.6-5.77-102.52-3.05l-9.56.74c-10.49.81-20.39,1.58-30.4,2.4-74.63,6.14-130.48-11.9-166-53.64-30.37-35.68-46-88.67-46.6-157.5-.29-35.33,3.52-94.19,23.28-174,14.51-58.6,30.7-99,45-134.65,22-54.85,39.33-98.17,42-180.82C378.75,762.22,365.18,662,339.33,556c-10.73-44-22.21-83.62-31.43-115.47-10.67-36.84-17.11-59.08-15.29-63.26.34-.79,5.39-6.68,13-15.58,4-4.71,8.23-9.57,8.55-10.09,1-1.69,27.59-31.4,29.17-33.12l.37.34-.37-.34c4.09-4.43,50.79-25.66,119-54.08,69.37-28.91,209.84-84.26,371.33-130.15C1000.06,87,1146,61.53,1267.56,58.53c85-2.37,162,9.84,229.08,36.29a397,397,0,0,1,109.88,65.07,392.37,392.37,0,0,1,69.69,76.35c35.25,50.61,47.87,94,48.89,100.49.82,5.17,20.46,55.13,45.33,118.39,55,139.93,130.33,331.58,123.5,342.33-9.73,15.3-133.75,214.55-246.21,405.57-9.64,16.37-19.23,32.7-28.71,48.86-49.4,84.15-96.06,163.63-133.22,220.27-18.58,28.32-45.75,51.17-78.59,66.07-17.38,7.89-37.54,13.2-55.3,14.58-19,1.48-33.48,1.21-52,.23l-2.94-.16c-12.92-.69-27.57-1.48-43.55-.5a250.2,250.2,0,0,0-49.95,8.2c-8,2.16-15.67,4.63-23.11,7-14.59,4.68-29.68,9.53-47.21,12-16.58,2.43-34.24,1.66-51.31.9-7-.31-14.28-.63-21.42-.73-27.48-.4-55.32,2.77-81.48,6l-12.53,1.61c-21.57,2.79-43.87,5.67-66.66,7.21C893.22,1595.12,886.52,1595.33,879.75,1595.33Zm-322.89-69.47a448.34,448.34,0,0,1,64.67,4.54c38.73,5.69,75.75,18.18,103.68,28.42,6,2.21,12,4.25,17.88,6.22,9.34,3.15,19,6.42,29,10.51,34,14,84.08,21.07,127.63,18.12,22.75-1.54,45-4.42,66.6-7.2l12.53-1.61c26.19-3.28,54.09-6.45,81.62-6.05,7.16.1,14.43.42,21.45.73,17,.75,34.64,1.53,51.13-.89,17.45-2.5,32.49-7.33,47-12,7.45-2.39,15.15-4.87,23.15-7a251.18,251.18,0,0,1,50.15-8.23c16-1,30.71-.2,43.66.5l2.94.16c18.46,1,32.86,1.25,51.84-.23,17.65-1.37,37.69-6.66,55-14.5,32.67-14.83,59.7-37.55,78.17-65.71,37.14-56.62,83.8-136.09,133.19-220.22q14.23-24.24,28.71-48.86c112.47-191,236.49-390.3,246.23-405.6,6.56-10.32-74.91-217.59-123.58-341.43-25.86-65.79-44.55-113.33-45.38-118.6-1-6.42-13.59-49.62-48.73-100.08a391.35,391.35,0,0,0-69.51-76.15,396,396,0,0,0-109.6-64.9c-66.92-26.39-143.86-38.58-228.69-36.22C1146.15,62.53,1000.25,88,834,135.27,672.52,181.14,532.08,236.47,462.74,265.38c-67,27.93-114.69,49.57-118.62,53.83h0c-1.69,1.83-28.13,31.46-29.05,33-.34.56-3.51,4.25-8.65,10.22-5.28,6.13-12.5,14.53-12.88,15.33-1.67,3.85,5.46,28.48,15.33,62.58,9.22,31.86,20.71,71.51,31.44,115.51,25.88,106.08,39.45,206.35,37.25,275.11-2.65,82.82-20,126.21-42,181.16-14.27,35.62-30.44,76-44.94,134.52-10.89,44-23.77,109.85-23.25,173.75.55,68.59,16.15,121.36,46.36,156.86,30.8,36.19,77,54.45,137.69,54.46q13.28,0,27.47-1.17c10-.82,19.92-1.59,30.41-2.41l9.56-.74C531.47,1526.36,544.22,1525.86,556.86,1525.86Z" fill="#dbbaba"/><path d="M876.14,1659c-40.21,0-83.39-6.41-116.21-17.5-10.81-3.66-21.35-6.61-31.54-9.46-6.54-1.83-13.29-3.72-20-5.77-34.47-10.5-71.53-20.92-109-26A559.15,559.15,0,0,0,494,1596.38l-4.9.27c-12.59.69-24.49,1.34-36.37,2.08-79.52,5-138.78-15.23-176.17-60.05-31.7-38-47.92-93.89-48.21-166.06-.21-53.44,8.2-114.86,25-182.57,15.51-61.55,32.67-103.91,47.81-141.28,23.52-58,42.1-103.9,44.62-192.49,2-69.87-13.23-174.35-41.77-286.65-12.43-48.9-26-93.85-35.83-126.67-10.54-35-16.9-56.15-15.4-59.59.3-.68,5.61-6.83,13.68-16.13,4.29-4.95,8.73-10.06,9-10.51.92-1.51,30.21-34.17,30.49-34.48,3.71-4,56.06-27.5,124.46-55.81C503,236.4,649.82,178.85,817.16,131.08c174.26-49.74,326.75-76.77,453.23-80.33,88.82-2.73,169.23,9.89,239,37.52a413.24,413.24,0,0,1,115.4,68.8,407.85,407.85,0,0,1,72.56,80.46c36,52.42,48.87,97.08,49.92,103.7.71,4.47,22.31,58,49.67,125.82C1871,650.67,1937,816.18,1931.65,824.68c-6.13,9.64-136.88,220.23-259.09,425.39q-13.89,23.31-27.61,46.41c-53.6,90.18-104.24,175.35-143.9,235.4-18.79,28.67-46.66,52.21-80.58,68.07a196.37,196.37,0,0,1-56.88,16.59c-20.18,2.56-37.27,3-55.93,3.31-4.16.07-8.51.06-13.11.06-10.72,0-22.86,0-35.36.92a326.38,326.38,0,0,0-51.49,8.09c-7.84,1.88-15.5,4-22.92,6-15.86,4.37-32.26,8.88-50.87,11.23-17.33,2.24-35.71,1.6-53.48,1-7-.24-14.17-.49-21.26-.56-27.59-.31-55.48,2.19-84,5l-10.1,1c-23.32,2.36-47.44,4.8-71.94,6C887.55,1658.87,881.87,1659,876.14,1659ZM526.7,1594.48a542.27,542.27,0,0,1,72.86,4.79c37.5,5.09,74.6,15.52,109.11,26,6.7,2,13.45,3.94,20,5.76,10.2,2.86,20.75,5.81,31.59,9.48,37.39,12.64,88.29,19.17,132.83,17.05,24.47-1.17,48.57-3.61,71.88-6l10.1-1c28.55-2.82,56.47-5.33,84.11-5,7.1.08,14.31.33,21.28.56,17.73.61,36.07,1.24,53.32-1,18.54-2.34,34.91-6.85,50.73-11.2,7.42-2,15.09-4.16,23-6a327.46,327.46,0,0,1,51.65-8.12c12.54-1,24.7-.93,35.43-.92,4.6,0,8.94,0,13.09-.06,18.63-.3,35.7-.75,55.83-3.3A195.35,195.35,0,0,0,1420,1599c33.76-15.79,61.48-39.2,80.17-67.71,39.65-60,90.28-145.19,143.88-235.36q13.7-23,27.61-46.41c122.22-205.16,253-415.77,259.11-425.41,5.57-8.76-82.29-226.57-134.79-356.71-28.45-70.51-49-121.46-49.73-126-1-6.58-13.9-51-49.76-103.29a406.86,406.86,0,0,0-72.38-80.26A412.26,412.26,0,0,0,1509,89.2C1439.38,61.62,1359.1,49,1270.42,51.75,1144,55.31,991.61,82.32,817.43,132,650.14,179.8,503.38,237.33,430.78,267.38c-76.54,31.68-121.07,52.27-124.11,55.56h0c-1.91,2.07-29.59,33-30.37,34.32-.3.49-3.66,4.36-9.11,10.65S254.07,383,253.67,383.79c-1.35,3.09,5.7,26.5,15.45,58.89C279,475.51,292.53,520.47,305,569.39c28.56,112.39,43.8,217,41.81,286.93-2.53,88.78-21.14,134.7-44.7,192.84-15.13,37.34-32.28,79.66-47.77,141.14-16.78,67.63-25.18,129-25,182.32.28,71.93,16.42,127.59,48,165.42,37.17,44.57,96.16,64.65,175.33,59.7,11.89-.74,23.79-1.4,36.38-2.08l4.9-.27Q510.44,1594.48,526.7,1594.48Z" fill="#dbbaba"/><path d="M873.35,1722.7c-42,0-87.84-5.89-125.14-16.22-11.64-3.23-23-5.87-34.06-8.44-7.26-1.69-14.77-3.43-22.2-5.31-30.82-7.78-73-18.43-114.43-23.62a690.52,690.52,0,0,0-108.37-4.71c-14.78.49-28.74,1-42.59,1.56C342,1669.66,279.24,1647.14,240,1599c-72.34-88.63-52.36-247.58-22.85-365.31,16.46-64.86,34.68-109.31,50.75-148.53,25-61.06,44.79-109.29,47.17-203.53,2.46-97.37-28-228.79-46.33-298.47-14.36-54.51-29.58-103.32-40.7-139C216.75,408.11,211.82,392,213,389.41c.23-.54,4.42-5.36,14.33-16.7,4.51-5.16,9.18-10.49,9.46-10.92.76-1.24,31.52-35.51,31.81-35.83l.37.34-.37-.34c2.93-3.18,53.45-26.09,129.94-57.54C555.3,204,954.41,52.92,1273.27,42.94c92.33-3.09,176.08,10,248.92,38.76a431.43,431.43,0,0,1,120.86,72.68,424.85,424.85,0,0,1,75.44,84.56c36.26,53.54,50,100.38,51,106.78.59,3.75,24.16,60.85,54,133.15,79.47,192.53,150.42,365.94,145.92,373-7,11-144.48,233.42-272,445.2l-21.33,35.45c-59.9,99.58-116.47,193.65-159.76,259-19.12,29.06-47.67,53.29-82.57,70.07a227.23,227.23,0,0,1-58.46,18.6,462.43,462.43,0,0,1-59.91,6.38c-4,.18-8.16.34-12.46.5-11.53.43-24.6.92-38,2.11a448.2,448.2,0,0,0-53,8c-7.47,1.58-14.87,3.32-22,5-17.36,4.07-35.31,8.29-55.25,10.48-18.18,2-37.39,1.56-56,1.09-6.8-.17-13.84-.35-20.77-.4-29.6-.25-59.84,2-86.52,4l-8.25.63c-24.89,1.89-50.63,3.84-76.63,4.54C882.2,1722.63,877.79,1722.7,873.35,1722.7ZM493.44,1663a678.73,678.73,0,0,1,84.21,5.12c41.47,5.2,83.71,15.86,114.55,23.65,7.42,1.88,14.92,3.62,22.18,5.31,11,2.56,22.44,5.22,34.1,8.45,41.15,11.4,92.76,17.38,138,16,26-.7,51.7-2.65,76.58-4.54l8.26-.62c26.7-2,57-4.21,86.6-4,6.94.05,14,.23,20.79.41,18.55.47,37.72,1,55.84-1.09,19.89-2.19,37.81-6.39,55.14-10.46,7.16-1.68,14.56-3.42,22-5a449.23,449.23,0,0,1,53.15-8c13.39-1.2,26.47-1.69,38-2.11,4.3-.16,8.46-.31,12.45-.5a461.59,461.59,0,0,0,59.79-6.37,226.21,226.21,0,0,0,58.19-18.51c34.73-16.7,63.15-40.81,82.17-69.72,43.28-65.36,99.85-159.42,159.74-259l21.33-35.45c127.49-211.78,265-434.19,272-445.22,4.6-7.23-89.68-235.63-146-372.1-31-75.19-53.45-129.51-54.07-133.37-1-6.36-14.67-53-50.84-106.37a423.85,423.85,0,0,0-75.26-84.36,430.43,430.43,0,0,0-120.58-72.51c-72.7-28.76-156.32-41.77-248.52-38.69-106.17,3.32-403.9,31.94-874.42,225.42-80.67,33.17-127.09,54.59-129.59,57.29-2,2.22-31,34.54-31.7,35.68-.25.41-3.62,4.27-9.56,11.06s-13.77,15.75-14.18,16.46c-1,2.37,5.74,24.06,15.1,54.09,11.12,35.65,26.34,84.48,40.71,139,18.37,69.73,48.83,201.25,46.36,298.75-2.39,94.43-22.18,142.73-47.25,203.89-16.06,39.19-34.26,83.61-50.71,148.4-29.45,117.51-49.42,276.12,22.66,364.43,39.06,47.86,101.55,70.26,185.78,66.56,13.85-.61,27.81-1.07,42.6-1.56Q481.33,1663,493.44,1663Z" fill="#dbbaba"/><path d="M873.12,1786.42c-44.64,0-94-5.4-136.64-15-12.39-2.79-24.59-5.13-36.39-7.4-8.05-1.55-16.38-3.15-24.59-4.86l-2.42-.5c-38.08-7.93-77.46-16.12-117.48-20.74a877.19,877.19,0,0,0-111.3-5.54c-14.2.18-29.29.38-43.9.76-89.6,2.32-155.91-22.59-197.06-74-34.21-42.78-51.41-104.28-51.11-182.79.22-57.68,9.86-124.62,28.66-199,17.41-68.17,36.69-114.73,53.7-155.8,26.53-64.07,47.48-114.67,49.71-214.56,2.21-99.14-30.93-237-50.88-310.28-16.61-61-34.37-116.14-46.13-152.6-10.43-32.34-15-46.71-14.14-48.69.19-.44,4.09-4.9,15-17.27,4.73-5.37,9.63-10.93,9.91-11.33.63-1,32.82-36.85,33.13-37.18,2.42-2.63,55.12-26.45,135.43-59.27,163.91-67,580.65-224,909.55-235.27,96.25-3.46,183.34,10,258.83,40a447.48,447.48,0,0,1,126.39,76.39,440.05,440.05,0,0,1,78.32,88.67c37,55.27,51,103.44,52,110,.48,3,26,63.65,58.36,140.43,84.86,201.47,160.73,382.78,157.12,388.46-5.86,9.22-151.69,245.9-284.85,465l-10.87,17.88c-67.86,111.68-132,217.16-179.8,289.27-19.72,29.87-48.17,54.12-84.56,72.07a258.87,258.87,0,0,1-60,20.6,508.73,508.73,0,0,1-63.89,9.46c-6.11.53-12.44,1-19.14,1.48-10.68.78-21.73,1.58-33.25,2.76-17.15,1.72-35.51,4.37-54.57,7.87-6.35,1.19-12.71,2.46-18.87,3.68-19.57,3.89-39.81,7.91-61.88,10-19.22,1.86-39.46,1.52-59,1.2-6.45-.11-13.12-.22-19.7-.25-28.63-.14-57.72,1.34-85.83,2.78l-5.69.29c-27.74,1.45-56.43,2.94-85.25,3.21Q876.55,1786.42,873.12,1786.42Zm-417.24-55.11a873.3,873.3,0,0,1,99.84,5.62c40.07,4.63,79.47,12.83,117.57,20.76l2.42.5c8.2,1.71,16.52,3.31,24.57,4.86,11.81,2.27,24,4.62,36.42,7.41a645.1,645.1,0,0,0,143.23,14.92c28.81-.28,57.48-1.77,85.21-3.21l5.69-.29c28.13-1.44,57.23-2.94,85.89-2.78,6.58,0,13.26.15,19.71.25,19.55.33,39.76.67,58.93-1.19,22-2.09,42.24-6.11,61.78-10,6.16-1.22,12.52-2.49,18.88-3.68,19.08-3.51,37.47-6.16,54.65-7.88,11.53-1.18,22.58-2,33.27-2.77,6.7-.49,13-.95,19.13-1.48a507.9,507.9,0,0,0,63.77-9.44,257.92,257.92,0,0,0,59.8-20.52c36.23-17.88,64.55-42,84.17-71.73,47.84-72.1,111.93-177.57,179.78-289.24l10.87-17.88c133.16-219.11,279-455.81,284.86-465,3.15-6.86-97.22-245.16-157.2-387.54-33.63-79.84-57.93-137.53-58.43-140.66-1-6.53-15-54.48-51.86-109.6a439.1,439.1,0,0,0-78.14-88.47A446.48,446.48,0,0,0,1534.6,76c-75.36-29.95-162.3-43.38-258.43-39.93C947.43,47.36,530.82,204.34,367,271.31c-85,34.73-133.1,56.88-135.07,59h0c-1.92,2.08-32.28,36-33,37-.19.31-3.2,3.73-10,11.46-6.43,7.3-14.43,16.38-14.84,17-.73,1.68,5.53,21.09,14.19,48,11.76,36.47,29.53,91.58,46.15,152.64,20,73.38,53.13,211.3,50.92,310.56-2.23,100.08-23.22,150.76-49.79,214.92-17,41-36.26,87.57-53.65,155.67-18.78,74.26-28.41,141.11-28.63,198.72-.29,78.27,16.83,139.56,50.89,182.16,40.94,51.2,107,76,196.25,73.67,14.61-.38,29.71-.58,43.91-.76Q450.09,1731.32,455.88,1731.32Z" fill="#dbbaba"/><path d="M883.14,1850.22q-4.9,0-9.82,0a888.3,888.3,0,0,1-148.59-13.86c-13-2.34-25.88-4.38-38.33-6.34-9-1.42-18.25-2.89-27.37-4.43l-6.83-1.16c-38.83-6.61-79-13.44-118.54-17.71-38.08-4-76.52-6.11-114.23-6.37-6.81,0-13.54,0-20,0-8.71,0-16.94.08-25.17-.05-95.91-1.6-166.24-30.84-209.06-86.9-34.58-45.28-51.72-108.74-51-188.62.57-59.07,10.53-125.74,30.44-203.82,18.36-71.49,38.7-120.15,56.65-163.09,28-67.07,50.18-120,52.24-225.58.84-43.33-5.23-142.79-55.43-322.09-19.28-68.85-39.92-130.83-52.26-167.85-9.78-29.36-13.13-39.58-12.53-41,.14-.32,3.21-3.82,15.63-17.83,5-5.6,10.1-11.39,10.37-11.76.45-.74,34.11-38.18,34.44-38.53h0c1.89-2.05,58.24-27.4,140.91-61,100.88-41,257.9-100.48,433.05-151.06C965.57,64,1137.59,32.43,1279,27.2c100.18-3.83,190.6,10,268.75,41.23a463.59,463.59,0,0,1,131.92,80.1,455.32,455.32,0,0,1,81.19,92.79c41.25,62.46,53,112.79,53,113.23.37,2.28,27.88,66.43,62.72,147.64,93.71,218.47,171.05,399.66,168.31,404-1.48,2.33-24.41,39.7-59.11,96.27-56,91.24-149.66,243.94-238.62,388.56-72.72,119.06-147.31,240.21-200.25,319.83-20,30.14-49.08,55.06-86.55,74.08a300.85,300.85,0,0,1-61.62,22.61,555.29,555.29,0,0,1-67.86,12.54c-9.19,1.13-18.77,2.12-28.92,3.16-8.24.85-16.75,1.72-25.43,2.72-17.3,2-36.18,4.57-56.11,7.76q-6.95,1.13-13.84,2.29c-22.39,3.74-45.55,7.6-70.39,9.6-20.63,1.7-42.31,1.5-63.27,1.32-5.81-.05-11.64-.1-17.47-.12-26.44-.08-53.4.75-79.49,1.54l-12.08.36C936.79,1849.49,910.16,1850.22,883.14,1850.22Zm-470.85-50.93,7.16,0c37.75.25,76.21,2.4,114.33,6.37,39.58,4.27,79.75,11.1,118.6,17.71l6.83,1.16c9.1,1.55,18.38,3,27.35,4.43,12.46,2,25.34,4,38.35,6.35a887.17,887.17,0,0,0,148.42,13.85c30.39.2,60.17-.6,90.55-1.52l12.08-.36c26.09-.79,53.09-1.61,79.52-1.54,5.84,0,11.67.07,17.48.12,20.94.18,42.59.38,63.18-1.31,24.79-2,47.93-5.86,70.3-9.59q6.91-1.15,13.85-2.29c19.95-3.2,38.84-5.81,56.15-7.77,8.68-1,17.2-1.87,25.44-2.72,10.14-1,19.73-2,28.9-3.16a554.24,554.24,0,0,0,67.74-12.51,299.84,299.84,0,0,0,61.42-22.53c37.31-18.93,66.3-43.74,86.17-73.74,52.93-79.61,127.51-200.75,200.23-319.8,89-144.61,182.64-297.32,238.62-388.56,34.71-56.57,57.64-94,59.12-96.28,1.6-6.73-100.7-245.22-168.39-403-36.23-84.47-62.41-145.5-62.79-147.88-.07-.43-11.74-50.54-52.88-112.83a454.31,454.31,0,0,0-81-92.58,462.58,462.58,0,0,0-131.63-79.93c-78-31.13-168.31-45-268.34-41.16-141.3,5.22-313.24,36.83-511,94-175.12,50.57-332.1,110-433,151-83.73,34-138.71,58.89-140.55,60.75h0c-.3.33-33.58,37.35-34.34,38.4-.14.24-3.14,3.62-10.45,11.87-6.72,7.58-15.09,17-15.49,17.62-.33,1.41,5.09,17.67,12.59,40.19,12.34,37,33,99,52.27,167.9,21.56,77,57.44,221.31,55.47,322.38-2.06,105.72-24.24,158.78-52.32,225.94-17.94,42.9-38.26,91.53-56.6,162.95-19.89,78-29.84,144.6-30.41,203.59-.77,79.65,16.31,142.9,50.75,188,42.62,55.81,112.7,84.92,208.28,86.51,8.22.14,16.44.1,25.15.05C403.6,1799.31,407.91,1799.29,412.28,1799.29Z" fill="#dbbaba"/><path d="M918.61,1914.27c-16.64,0-34.16-.14-51.94-.54a1321.34,1321.34,0,0,1-153.73-12.79c-13.26-1.87-26.47-3.56-39.25-5.21-10.23-1.31-20.81-2.67-31.16-4.09l-14.94-2c-38.29-5.26-77.89-10.7-115.89-14.44-39.93-3.83-79.35-6.25-117.16-7.2-8.41-.21-16.68-.33-24.67-.44-7.56-.11-14.71-.21-21.86-.38-100.66-2.44-174.37-33.65-219.08-92.77-36-47.6-53.75-114-52.77-197.43.73-61.61,11.26-131.18,32.21-212.7,19.31-74.81,40.72-125.58,59.61-170.37,29.55-70.07,52.89-125.42,54.77-236.59,1.65-97.65-31.71-235.48-60-333.91-22.6-78.67-46.48-148-59.31-185.24-8.56-24.85-10.36-30.26-10-31.08.1-.23,2.13-2.54,16.24-18.35,5.46-6.12,10.61-11.9,10.86-12.22.3-.49,35.4-39.49,35.75-39.87h0c1.19-1.3,56.84-26.68,146.4-62.73,104.24-42.31,266.66-103.8,448.43-156.42C956.75,57.93,1135.29,24.82,1281.8,19c104.1-4.19,197.86,10.1,278.67,42.47C1786.2,152.28,1835.71,356.68,1836,358.67s29.85,69.43,67.07,154.79c36.62,84,82.2,188.53,118.11,271.81,62.78,145.58,61.85,147,61.4,147.73s-7.56,12.29-19.21,31.29c-46.84,76.39-171.26,279.3-291.41,473.35-67.22,109.06-151.82,245.41-209.83,332.5-20.29,30.55-50.08,56.14-88.54,76.08a340.8,340.8,0,0,1-63.21,24.61,601.93,601.93,0,0,1-71.83,15.61c-14.62,2.28-30,4.21-46.31,6.25l-10,1.25c-16.61,2.08-35.47,4.58-57.65,7.65l-1.84.26c-27.45,3.85-55.84,7.83-85.87,9.85-22.95,1.56-47,1.51-70.27,1.47-4.15,0-8.33,0-12.48,0H1054c-20.95,0-42.4.26-63.14.52q-15.4.19-30.8.35C947.25,1914.16,933.27,1914.27,918.61,1914.27ZM94.39,407.44c.07,1.52,4.26,13.67,10,30.37,12.83,37.25,36.71,106.59,59.32,185.29,28.29,98.49,61.68,236.42,60,334.2-1.88,111.36-25.25,166.79-54.85,237C150,1239,128.63,1289.75,109.34,1364.5,88.41,1445.94,77.88,1515.43,77.16,1577c-1,83.18,16.71,149.4,52.57,196.81,44.52,58.87,118,89.94,218.31,92.37,7.15.17,14.29.28,21.85.38,8,.11,16.27.23,24.68.44,37.83.94,77.27,3.37,117.23,7.2,38,3.74,77.63,9.18,115.93,14.44l14.94,2c10.34,1.42,20.92,2.77,31.15,4.09,12.78,1.64,26,3.34,39.26,5.21a1320.39,1320.39,0,0,0,153.61,12.78c33.43.75,66,.57,93.4.3q15.39-.15,30.79-.35c20.75-.26,42.2-.52,63.15-.52h.33l12.3,0c23.25,0,47.28.09,70.2-1.47,30-2,58.37-6,85.8-9.84l1.84-.26c22.18-3.07,41-5.57,57.66-7.65l10-1.25c16.29-2,31.68-4,46.28-6.25a600.57,600.57,0,0,0,71.71-15.59,339.64,339.64,0,0,0,63-24.54c38.3-19.86,68-45.34,88.17-75.75,58-87.08,142.59-223.42,209.81-332.48,120.14-194,244.56-397,291.4-473.34,11.73-19.14,18.33-29.9,19.16-31.22-.27-7.53-108.11-254.87-179.53-418.69-42.72-98-66.9-153.49-67.14-155-.32-2-49.7-205.81-275-296.4-80.67-32.32-174.3-46.59-278.26-42.4C1135.41,25.81,957,58.91,751.4,118.42,569.67,171,407.29,232.5,303.07,274.8,215.69,310,159,335.71,157,337.3c-.76.84-35,38.89-35.66,39.76-.08.14-1.92,2.21-10.93,12.31C103.65,397,95.26,406.37,94.39,407.44Z" fill="#dbbaba"/><path d="M1011.61,1979c-18,0-36.68-.05-55.32-.23-35.07-.33-66.56-1-96.28-2.12-49.2-1.79-102.65-5.73-158.87-11.71-12-1.27-24-2.5-35.58-3.69-13-1.33-26.46-2.71-39.54-4.12l-26.32-2.85c-38.26-4.15-74.39-8.08-110-11.26-43.58-3.84-84-6.54-120.08-8-13.09-.57-25.73-.95-38-1.32l-9.88-.3c-54.93-1.72-102.58-11.6-141.62-29.38-35.79-16.29-65.23-39.62-87.5-69.33-37.41-49.91-55.77-119.29-54.57-206.21.88-64.13,12-136.6,34-221.54,20.25-78.12,42.78-131,62.65-177.63,31.13-73.08,55.72-130.8,57.21-247.63,1.28-78.75-20.44-195.07-64.54-345.72C100.3,544.14,72,464.79,59.93,430.9c-6.33-17.76-6.53-18.4-6.35-18.81.06-.14.08-.18,16.86-18.89,5.73-6.39,11.14-12.42,11.36-12.68s36.7-40.82,37.06-41.21h0c.77-.84,59.85-27.52,151.88-64.46C379.53,231,548.33,167.37,734.61,113.26c213.56-62,398.6-96.7,550-103,108-4.56,205.13,10.14,288.58,43.71,233.39,94,284.66,306.15,285,308.22.49,1.56,31.8,72.33,71.44,161.92,38.71,87.5,86.9,196.4,125,282.86,66.5,151.09,66.07,151.78,65.75,152.28l-7.08,11.55c-146.42,239.12-252.88,410.9-316.41,512.9C1695.73,1646.33,1626,1756,1577.42,1828.84c-20.62,30.95-51.08,57.22-90.53,78.08a393.82,393.82,0,0,1-64.8,26.61,651.61,651.61,0,0,1-75.8,18.69c-16.23,3-34.74,5.91-58.26,9.14-19.62,2.69-39.53,5.22-59.18,7.54-24.24,2.88-56.52,6.43-91.19,8.32-28.62,1.57-58.44,1.65-84.75,1.71C1039.8,1979,1025.91,1979,1011.61,1979ZM54.56,412.45c.28,1.22,2.72,8,6.31,18.12,12.08,33.89,40.38,113.27,67.5,205.09,44.13,150.75,65.86,267.17,64.58,346-1.49,117-26.12,174.83-57.29,248-19.86,46.61-42.37,99.44-62.6,177.49C51.1,1492,40,1564.42,39.12,1628.47c-1.19,86.69,17.1,155.86,54.37,205.59,22.16,29.57,51.47,52.79,87.11,69,38.92,17.72,86.44,27.57,141.24,29.29l9.88.3c12.23.37,24.88.75,38,1.32,36.11,1.49,76.53,4.19,120.13,8,35.59,3.18,71.73,7.1,110,11.26l26.32,2.85c13.08,1.41,26.53,2.79,39.54,4.12,11.61,1.19,23.62,2.42,35.58,3.69,56.2,6,109.63,9.92,158.8,11.7,29.71,1.1,61.2,1.8,96.25,2.13,33.42.32,67,.24,96.59.17,26.29-.06,56.1-.14,84.7-1.71,34.65-1.89,66.9-5.43,91.13-8.31,19.65-2.32,39.55-4.85,59.16-7.54,23.5-3.23,42-6.13,58.21-9.13a650.44,650.44,0,0,0,75.69-18.66,392.86,392.86,0,0,0,64.63-26.54c39.3-20.78,69.64-46.94,90.17-77.75,48.59-72.82,118.3-182.49,219.39-345.15,63.53-102,170-273.77,316.41-512.89l7-11.41c-2-7.88-115.45-264.32-190.68-434.35-46.9-106-71.38-161.35-71.51-162.16-.08-.46-12.59-53.8-55-119.36a484.79,484.79,0,0,0-86.75-100.77c-41.5-36.52-89.49-65.9-142.65-87.31-83.33-33.51-180.28-48.19-288.17-43.64-151.31,6.33-336.28,41-549.76,103-186.24,54.1-355,117.72-463.79,161.56-92.13,37-149.57,63-151.55,64.24-1.28,1.41-36.41,40.42-37,41.11,0,0-.49.58-11.4,12.74C64.24,401.61,55.69,411.14,54.56,412.45Z" fill="#dbbaba"/><path d="M1038.22,2044.16c-164.5,0-340-14.65-493-27.41-92.51-7.72-179.9-15-249.65-17.67-57.43-2.19-107.2-12.85-148-31.68-37.35-17.27-68-41.83-91.21-73-38.8-52.22-57.77-124.54-56.36-215,1-66.64,12.72-142,35.73-230.35,21.21-81.47,44.76-136.46,65.54-185,32.58-76.07,58.31-136.15,59.8-258.58.7-57.43-11.36-168.21-72.8-369.78C51.6,515.17,14.07,418,13.7,417l-.11-.29,68-75.32c1.76-.8,178.5-80.53,414.38-161.94C634.47,131.64,766,92.61,886.87,63.45,1038,27,1172.73,6,1287.41.91s217.3,10.95,304.84,47.55c70.05,29.29,130.7,71.75,180.25,126.22,84.38,92.74,107.59,189.45,107.81,190.42l277.84,619.58-.14.23c-3.95,6.46-396.48,649.4-565.36,902.13C1510,2010.76,1286.65,2044.16,1038.22,2044.16ZM14.74,416.93C17,422.87,53.54,518.09,89.3,635.44c33.93,111.33,74.11,265.91,72.84,370.09-1.5,122.64-27.26,182.8-59.88,259C81.5,1313,58,1367.94,36.77,1449.33c-23,88.28-34.66,163.55-35.7,230.11-1.4,90.19,17.49,162.3,56.16,214.34,23.07,31,53.62,55.5,90.82,72.7,40.63,18.78,90.28,29.41,147.57,31.59,69.77,2.66,157.17,10,249.69,17.67,153,12.77,328.57,27.42,493,27.42,248.12,0,471-33.32,553.47-156.71,167.71-251,556-886.77,565.21-901.87L1879.37,365.41c-.25-1.06-23.42-97.55-107.64-190.1-49.46-54.35-110-96.72-179.89-125.94C1504.44,12.83,1402-3.13,1287.46,1.91S1038.13,28,887.1,64.42c-120.83,29.15-252.33,68.17-390.84,116C262.63,261,87,340,82.06,342.26Z" fill="#dbbaba"/><circle cx="461.63" cy="1463.16" r="27" fill="#dbbaba"/><circle cx="673.63" cy="1119.16" r="27" fill="#dbbaba"/><circle cx="386.63" cy="1075.16" r="8" fill="#dbbaba"/></svg>