<svg xmlns="http://www.w3.org/2000/svg" viewBox="0 0 2230.76 1387.32"><title>right-shape</title><path d="M0,1279.25c150.75-199.18,203.54-226.09,442.47-184.61,83.14,14.43,163.19,44.81,233.52,91.65C738.61,1228,784.2,1312.82,867,1316c27.8,1.08,54.93-8.06,80.76-18.42,169.88-68.11,331-200.75,525.5-164.47,122,22.76,204.28,103.91,296.43,179,57,46.45,128.51,85.58,200.86,72.59,51.13-9.18,94.6-43.43,128.12-83.11,249.85-295.79,96.92-688.63-62.76-991.76-38.62-73.31-80.47-145.07-126-214.31-12.82-19.49-39-76.89-62.64-86.09-18-7-1031-8-1062.5-9.52s-582.5,151.52-582.5,151.52Z" fill="#190c66"/></svg>